<svg width="224" height="48" viewBox="0 0 224 48" fill="none" xmlns="http://www.w3.org/2000/svg">
<path d="M79.5161 28.1614C78.9915 29.7309 77.9916 31.0835 76.6646 32.0182C75.3377 32.953 73.7546 33.4199 72.1507 33.3498C69.975 33.3073 67.9023 32.3833 66.3781 30.7765C64.8539 29.1697 64 27.0083 64 24.757C64 22.5057 64.8539 20.3443 66.3781 18.7375C67.9023 17.1306 69.975 16.2067 72.1507 16.1642C73.1944 16.1579 74.2287 16.3685 75.1921 16.7834C76.1556 17.1984 77.0288 17.8092 77.7598 18.5798C78.4908 19.3503 79.0649 20.2648 79.4479 21.2692C79.8309 22.2735 80.0151 23.3472 79.9895 24.4265C79.982 24.8173 79.9505 25.2073 79.8949 25.5939L79.8326 26.0529H67.9223C68.0346 27.1293 68.5301 28.1238 69.3123 28.8431C70.0944 29.5623 71.1074 29.9547 72.1538 29.9439C72.8063 29.9782 73.4556 29.8309 74.0343 29.5174C74.6131 29.2039 75.1001 28.7357 75.4445 28.1614H79.5161ZM76.0687 23.2973C75.9877 22.2803 75.5396 21.3321 74.8137 20.6412C74.0878 19.9504 73.1371 19.5674 72.1507 19.5685C71.1281 19.5527 70.1347 19.9223 69.3561 20.6084C68.5775 21.2945 68.0669 22.2503 67.9194 23.2973H76.0687Z" fill="#F05C2B"/>
<path d="M85.1516 25.8881C85.1516 27.8665 87.0316 29.4547 90.0103 29.4547C93.1443 29.4547 94.3986 28.1908 94.3986 26.5368C94.3986 25.2072 93.6147 24.1377 90.7942 23.6175L87.0332 22.9687C83.241 22.32 81.5472 20.0509 81.5472 16.8087C81.5472 13.0478 84.5245 10 89.6965 10C95.3374 10 98.1582 13.2131 98.1582 17.4575H94.0833C94.0833 15.5128 92.5466 13.8909 89.6951 13.8909C86.8436 13.8909 85.6206 15.1563 85.6206 16.8087C85.6206 18.1062 86.2476 18.9814 88.5978 19.4098L92.0454 20.0586C96.4646 20.8695 98.4701 22.7821 98.4701 26.5445C98.4701 30.4354 95.6498 33.3533 90.0074 33.3533C84.365 33.3533 81.0742 30.1402 81.0742 25.8958L85.1516 25.8881Z" fill="#F05C2B"/>
<path d="M110.381 31.405H110.224C109.91 31.7862 109.54 32.1145 109.128 32.3781C108.094 33.0401 106.896 33.3781 105.68 33.3512C102.045 33.3512 99.8828 31.0561 99.8828 28.325C99.8828 25.0828 102.078 22.8167 106.464 22.8167H110.069V22.4924C110.105 22.0923 110.058 21.6889 109.931 21.3091C109.805 20.9293 109.601 20.5819 109.334 20.2902C109.067 19.9986 108.742 19.7693 108.383 19.6179C108.023 19.4665 107.636 19.3964 107.248 19.4124C106.612 19.3581 105.979 19.5406 105.462 19.9269C104.945 20.3132 104.578 20.8779 104.428 21.5193H100.504C100.848 18.7958 102.98 16.1641 107.242 16.1641C111.317 16.1641 113.981 18.9533 113.981 22.4862V33.0238H110.688L110.381 31.405ZM110.067 25.8967H106.776C104.738 25.8967 103.799 26.7077 103.799 28.0052C103.799 29.3027 104.709 30.1136 106.313 30.1136C106.807 30.1714 107.308 30.1161 107.779 29.9515C108.25 29.787 108.68 29.5172 109.039 29.1613C109.398 28.8055 109.677 28.3723 109.856 27.8924C110.035 27.4126 110.109 26.8979 110.074 26.3848L110.067 25.8967Z" fill="#F05C2B"/>
<path d="M116.66 16.4894H120.264L120.578 18.1113H120.735C120.999 17.7402 121.315 17.4121 121.674 17.1381C122.485 16.5026 123.476 16.1607 124.494 16.165C125.704 16.1416 126.886 16.5417 127.849 17.3003C128.241 17.6295 128.589 18.0113 128.884 18.4356H129.041C129.369 18.0094 129.748 17.628 130.169 17.3003C131.214 16.5398 132.465 16.1422 133.743 16.165C134.557 16.1934 135.357 16.3882 136.098 16.7383C136.838 17.0884 137.505 17.5868 138.059 18.2047C138.612 18.8227 139.042 19.5479 139.323 20.3386C139.604 21.1293 139.731 21.9698 139.697 22.8116V33.0247H135.779V23.1344C135.779 21.0275 134.714 19.8922 133.117 19.8922C132.712 19.8914 132.312 19.976 131.94 20.1408C131.568 20.3055 131.232 20.547 130.954 20.8504C130.675 21.1539 130.459 21.5129 130.319 21.9056C130.179 22.2984 130.118 22.7165 130.14 23.1344V33.0247H126.22V23.1344C126.22 21.0275 125.156 19.8922 123.558 19.8922C123.154 19.8912 122.753 19.9756 122.381 20.1403C122.009 20.305 121.673 20.5464 121.394 20.8499C121.115 21.1534 120.899 21.5125 120.759 21.9053C120.619 22.2981 120.558 22.7163 120.579 23.1344V33.0247H116.662L116.66 16.4894Z" fill="#F05C2B"/>
<path d="M142.356 16.4922H146.274V26.0581C146.274 27.004 146.637 27.9112 147.283 28.5801C147.93 29.2489 148.807 29.6246 149.721 29.6246C150.636 29.6246 151.512 29.2489 152.159 28.5801C152.805 27.9112 153.169 27.004 153.169 26.0581V16.4922H157.087V33.029H153.482L153.169 31.4072H153.012C152.702 31.7806 152.343 32.1081 151.947 32.3803C150.954 33.0308 149.8 33.3689 148.625 33.3534C147.759 33.3629 146.9 33.1852 146.104 32.8317C145.308 32.4781 144.592 31.9566 144.002 31.3005C143.412 30.6443 142.961 29.868 142.678 29.0211C142.395 28.1743 142.286 27.2755 142.357 26.3825L142.356 16.4922Z" fill="#F05C2B"/>
<path d="M171.345 31.2409H171.188C170.875 31.6629 170.493 32.0253 170.06 32.312C168.994 33.0162 167.751 33.3773 166.486 33.3494C162.412 33.3494 159.121 29.945 159.121 24.7566C159.121 19.5681 162.412 16.1638 166.486 16.1638C167.715 16.147 168.918 16.5208 169.934 17.2348C170.356 17.5109 170.728 17.8621 171.031 18.2722H171.188V10.3281H175.106V33.025H171.655L171.345 31.2409ZM171.188 24.7566C171.188 21.6429 169.496 19.8925 167.113 19.8925C164.731 19.8925 163.039 21.6429 163.039 24.7566C163.039 27.8702 164.731 29.6206 167.113 29.6206C169.496 29.6206 171.188 27.8687 171.188 24.7566Z" fill="#F05C2B"/>
<path d="M187.789 31.405H187.632C187.317 31.7863 186.947 32.1145 186.535 32.3781C185.5 33.0403 184.303 33.3783 183.087 33.3512C179.452 33.3512 177.289 31.0561 177.289 28.325C177.289 25.0828 179.483 22.8167 183.871 22.8167H187.475V22.4924C187.512 22.0923 187.465 21.6889 187.338 21.3091C187.211 20.9293 187.008 20.5819 186.74 20.2902C186.473 19.9986 186.149 19.7693 185.789 19.6179C185.43 19.4665 185.043 19.3964 184.655 19.4124C184.019 19.3584 183.386 19.541 182.869 19.9272C182.351 20.3135 181.985 20.8781 181.834 21.5193H177.916C178.261 18.7958 180.392 16.1641 184.655 16.1641C188.729 16.1641 191.393 18.9533 191.393 22.4862V33.0238H188.102L187.789 31.405ZM187.475 25.8967H184.184C182.149 25.8967 181.207 26.7077 181.207 28.0052C181.207 29.3027 182.117 30.1136 183.721 30.1136C184.215 30.1712 184.715 30.1157 185.186 29.951C185.657 29.7863 186.087 29.5165 186.446 29.1607C186.805 28.8049 187.083 28.3717 187.262 27.892C187.441 27.4123 187.516 26.8977 187.481 26.3848L187.475 25.8967Z" fill="#F05C2B"/>
<path d="M203.79 31.405H203.633C203.319 31.7863 202.948 32.1145 202.536 32.3781C201.501 33.0403 200.303 33.3783 199.087 33.3512C195.452 33.3512 193.289 31.0561 193.289 28.325C193.289 25.0828 195.482 22.8167 199.871 22.8167H203.475V22.4924C203.511 22.0923 203.465 21.6889 203.338 21.3091C203.211 20.9293 203.008 20.5819 202.74 20.2902C202.473 19.9986 202.149 19.7693 201.789 19.6179C201.43 19.4665 201.043 19.3964 200.654 19.4124C200.019 19.3581 199.385 19.5406 198.868 19.9269C198.351 20.3132 197.984 20.8779 197.834 21.5193H193.916C194.262 18.7958 196.392 16.1641 200.656 16.1641C204.731 16.1641 207.394 18.9533 207.394 22.4862V33.0238H204.098L203.79 31.405ZM203.476 25.8967H200.186C198.149 25.8967 197.207 26.7077 197.207 28.0052C197.207 29.3027 198.117 30.1136 199.721 30.1136C200.215 30.1714 200.716 30.1161 201.187 29.9515C201.658 29.787 202.088 29.5172 202.447 29.1613C202.806 28.8055 203.085 28.3723 203.264 27.8924C203.443 27.4126 203.517 26.8979 203.482 26.3848L203.476 25.8967Z" fill="#F05C2B"/>
<path d="M209.268 35.7847H212.402C213.186 35.7847 213.437 35.4603 213.593 34.9737L213.875 34.1628L207.387 16.4922H211.461L215.536 27.6784H216.163L219.924 16.4922H223.999L217.261 36.2712C216.509 38.5403 215.505 39.5134 212.56 39.5134H209.269L209.268 35.7847Z" fill="#F05C2B"/>
<path d="M10.4783 12.0529L5.26172 17.2695L17.2335 29.2404L22.4501 24.0239L10.4783 12.0529Z" fill="#F05C2B"/>
<path d="M17.2647 5.25891L12.0469 10.4766L17.2647 15.6942L22.4825 10.4766L17.2647 5.25891Z" fill="#F05C2B"/>
<path d="M10.4405 25.5909L5.22266 30.8086L10.4405 36.0262L15.6583 30.8086L10.4405 25.5909Z" fill="#F05C2B"/>
<path d="M30.8029 5.20137L18.7969 17.207L24.017 22.427L36.023 10.4213L30.8029 5.20137Z" fill="#F05C2B"/>
<path d="M23.9865 25.5529L11.9805 37.5586L17.1971 42.7751L29.2031 30.7694L23.9865 25.5529Z" fill="#F05C2B"/>
<path d="M30.7674 18.7601L25.5508 23.9766L37.5222 35.9477L42.7389 30.7312L30.7674 18.7601Z" fill="#F05C2B"/>
<path d="M37.5576 11.9698L32.3398 17.1875L37.5576 22.4052L42.7755 17.1875L37.5576 11.9698Z" fill="#F05C2B"/>
<path d="M30.7335 32.298L25.5156 37.5156L30.7335 42.7333L35.9513 37.5156L30.7335 32.298Z" fill="#F05C2B"/>
<path d="M3.68956 27.7304C5.72725 27.7304 7.37913 26.0786 7.37913 24.041C7.37913 22.0034 5.72725 20.3516 3.68956 20.3516C1.65187 20.3516 0 22.0034 0 24.041C0 26.0786 1.65187 27.7304 3.68956 27.7304Z" fill="#F05C2B"/>
<path d="M24.0489 7.37886C26.0866 7.37886 27.7385 5.72704 27.7385 3.68943C27.7385 1.65181 26.0866 0 24.0489 0C22.0112 0 20.3594 1.65181 20.3594 3.68943C20.3594 5.72704 22.0112 7.37886 24.0489 7.37886Z" fill="#F05C2B"/>
<path d="M23.9474 48C25.9851 48 27.6369 46.3481 27.6369 44.3105C27.6369 42.2729 25.9851 40.6211 23.9474 40.6211C21.9097 40.6211 20.2578 42.2729 20.2578 44.3105C20.2578 46.3481 21.9097 48 23.9474 48Z" fill="#F05C2B"/>
<path d="M44.3107 27.6289C46.3484 27.6289 48.0002 25.977 48.0002 23.9394C48.0002 21.9018 46.3484 20.25 44.3107 20.25C42.273 20.25 40.6211 21.9018 40.6211 23.9394C40.6211 25.977 42.273 27.6289 44.3107 27.6289Z" fill="#F05C2B"/>
</svg>
