<svg width="62" height="40" viewBox="0 0 62 40" fill="none" xmlns="http://www.w3.org/2000/svg">
<g clip-path="url(#clip0_2481_13549)">
<path d="M7.26 10.24L6.64 11.92L6.06 15.26C6.79333 15.1533 8.31333 14.96 10.62 14.68C10.8867 14.88 11.0133 15.2333 11 15.74C10.9867 16.2333 10.8267 16.7 10.52 17.14C9.14667 16.9667 7.58 16.88 5.82 16.88C5.64667 18.36 5.52 20.2533 5.44 22.56C4.98667 22.92 4.25333 23.04 3.24 22.92C2.22667 22.8 1.54667 22.5067 1.2 22.04C2.29333 19.0933 3.1 16.0733 3.62 12.98L3.5 10.26C3.06 10.0867 2.62667 9.96 2.2 9.88C1.97333 9.22667 2.02 8.74 2.34 8.42C4.43333 8.23333 6.22667 8.13333 7.72 8.12C9.22667 8.09333 11.1 8.14 13.34 8.26C13.7 8.94 13.7533 9.58667 13.5 10.2C13.2467 10.8133 12.7333 11.32 11.96 11.72L10.2 10.16C8.94667 10.1067 7.96667 10.1333 7.26 10.24ZM24.8339 15.66L27.0739 15.26C27.5406 15.66 27.5072 16.2867 26.9739 17.14L24.9739 17.28L25.4739 22.6C25.0339 22.9467 24.3206 23.08 23.3339 23C22.3472 22.9067 21.5539 22.6467 20.9539 22.22L21.5739 17.5L18.6939 17.7L16.8739 22.6C16.2472 22.9333 15.4872 23.0467 14.5939 22.94C13.7006 22.82 13.1339 22.5533 12.8939 22.14L15.0139 18.04L13.6739 18.18C13.1539 17.6467 13.1806 17.0133 13.7539 16.28L15.9339 16.26L17.5139 13.22L18.8539 8.84C19.6139 8.50667 20.4206 8.28667 21.2739 8.18C22.8739 7.98 24.0872 8.08667 24.9139 8.5L24.4739 11.84L24.8339 15.66ZM21.2739 10.68L19.2339 16.22L21.7339 16.2L21.5539 10.62L21.2739 10.68ZM36.2428 18.62C36.2428 18.3533 36.0095 18.0733 35.5428 17.78C35.0895 17.4867 34.5228 17.1733 33.8428 16.84C33.1628 16.5067 32.4761 16.14 31.7828 15.74C31.1028 15.34 30.4895 14.8333 29.9428 14.22C29.3961 13.5933 29.0695 12.9133 28.9628 12.18C29.5361 10.9667 30.4295 9.98 31.6428 9.22C32.8561 8.44667 34.2228 7.98 35.7428 7.82C36.8228 7.95333 37.7761 8.28 38.6028 8.8C39.4295 9.32 40.0628 9.97333 40.5028 10.76C40.1561 12.2667 38.9695 12.82 36.9428 12.42C36.7561 11.2467 36.3295 10.3067 35.6628 9.6C34.9695 9.8 34.2961 10.1267 33.6428 10.58C33.0028 11.02 32.6895 11.4133 32.7028 11.76C32.7028 12.0133 32.9295 12.3067 33.3828 12.64C33.8361 12.96 34.3961 13.3 35.0628 13.66C35.7428 14.02 36.4295 14.4067 37.1228 14.82C37.8295 15.22 38.4761 15.7 39.0628 16.26C39.6495 16.8067 40.0361 17.36 40.2228 17.92C40.0095 19.32 39.2695 20.4667 38.0028 21.36C36.7495 22.2533 35.1495 22.8 33.2028 23C31.9761 22.7733 30.8428 22.3467 29.8028 21.72C28.7761 21.08 28.0761 20.3733 27.7028 19.6C28.1295 18.7733 28.6295 18.1733 29.2028 17.8C29.7895 17.4267 30.5361 17.38 31.4428 17.66C31.5895 18.38 31.8095 19.0067 32.1028 19.54C32.3961 20.0733 32.8161 20.6333 33.3628 21.22C34.1761 21.0467 34.8561 20.72 35.4028 20.24C35.9628 19.76 36.2428 19.22 36.2428 18.62ZM47.0784 10.46L43.4184 10.9C42.7518 10.0867 42.6051 9.26667 42.9784 8.44C45.3118 8.25333 47.2784 8.14667 48.8784 8.12C50.4784 8.09333 52.5851 8.14667 55.1984 8.28C55.6918 8.89333 55.5984 9.72667 54.9184 10.78L50.5384 10.32L49.5584 14.12C49.2651 18.7067 49.0918 21.52 49.0384 22.56C48.4784 22.9467 47.6851 23.0733 46.6584 22.94C45.6451 22.7933 45.0251 22.4933 44.7984 22.04C45.7718 18.96 46.5251 15.7067 47.0584 12.28L47.0784 10.46Z" fill="#F05C2B"/>
<path d="M2.2792 37.0889L61.9635 26.9998" stroke="#FFC727" stroke-width="3"/>
</g>
<defs>
<clipPath id="clip0_2481_13549">
<rect width="62" height="40" fill="white"/>
</clipPath>
</defs>
</svg>
