<svg width="88" height="56" viewBox="0 0 88 56" fill="none" xmlns="http://www.w3.org/2000/svg">
<g clip-path="url(#clip0_2399_12714)">
<path d="M11.616 10.584L10.624 13.272L9.696 18.616C10.8693 18.4453 13.3013 18.136 16.992 17.688C17.4187 18.008 17.6213 18.5733 17.6 19.384C17.5787 20.1733 17.3227 20.92 16.832 21.624C14.6347 21.3467 12.128 21.208 9.312 21.208C9.03467 23.576 8.832 26.6053 8.704 30.296C7.97867 30.872 6.80533 31.064 5.184 30.872C3.56267 30.68 2.47467 30.2107 1.92 29.464C3.66933 24.7493 4.96 19.9173 5.792 14.968L5.6 10.616C4.896 10.3387 4.20267 10.136 3.52 10.008C3.15733 8.96267 3.232 8.184 3.744 7.672C7.09333 7.37333 9.96267 7.21333 12.352 7.192C14.7627 7.14933 17.76 7.224 21.344 7.416C21.92 8.504 22.0053 9.53867 21.6 10.52C21.1947 11.5013 20.3733 12.312 19.136 12.952L16.32 10.456C14.3147 10.3707 12.7467 10.4133 11.616 10.584ZM39.7343 19.256L43.3183 18.616C44.0649 19.256 44.0116 20.2587 43.1583 21.624L39.9583 21.848L40.7583 30.36C40.0543 30.9147 38.9129 31.128 37.3343 31C35.7556 30.8507 34.4863 30.4347 33.5263 29.752L34.5183 22.2L29.9103 22.52L26.9983 30.36C25.9956 30.8933 24.7796 31.0747 23.3503 30.904C21.9209 30.712 21.0143 30.2853 20.6303 29.624L24.0223 23.064L21.8783 23.288C21.0463 22.4347 21.0889 21.4213 22.0063 20.248L25.4943 20.216L28.0223 15.352L30.1663 8.344C31.3823 7.81067 32.6729 7.45867 34.0383 7.288C36.5983 6.968 38.5396 7.13867 39.8623 7.8L39.1583 13.144L39.7343 19.256ZM34.0383 11.288L30.7743 20.152L34.7743 20.12L34.4863 11.192L34.0383 11.288ZM57.9885 23.992C57.9885 23.5653 57.6152 23.1173 56.8685 22.648C56.1432 22.1787 55.2365 21.6773 54.1485 21.144C53.0605 20.6107 51.9618 20.024 50.8525 19.384C49.7645 18.744 48.7832 17.9333 47.9085 16.952C47.0338 15.9493 46.5112 14.8613 46.3405 13.688C47.2578 11.7467 48.6872 10.168 50.6285 8.952C52.5698 7.71467 54.7565 6.968 57.1885 6.712C58.9165 6.92533 60.4418 7.448 61.7645 8.28C63.0872 9.112 64.1005 10.1573 64.8045 11.416C64.2498 13.8267 62.3512 14.712 59.1085 14.072C58.8098 12.1947 58.1272 10.6907 57.0605 9.56C55.9512 9.88 54.8738 10.4027 53.8285 11.128C52.8045 11.832 52.3032 12.4613 52.3245 13.016C52.3245 13.4213 52.6872 13.8907 53.4125 14.424C54.1378 14.936 55.0338 15.48 56.1005 16.056C57.1885 16.632 58.2872 17.2507 59.3965 17.912C60.5272 18.552 61.5618 19.32 62.5005 20.216C63.4392 21.0907 64.0578 21.976 64.3565 22.872C64.0152 25.112 62.8312 26.9467 60.8045 28.376C58.7992 29.8053 56.2392 30.68 53.1245 31C51.1618 30.6373 49.3485 29.9547 47.6845 28.952C46.0418 27.928 44.9218 26.7973 44.3245 25.56C45.0072 24.2373 45.8072 23.2773 46.7245 22.68C47.6632 22.0827 48.8578 22.008 50.3085 22.456C50.5432 23.608 50.8952 24.6107 51.3645 25.464C51.8338 26.3173 52.5058 27.2133 53.3805 28.152C54.6818 27.8747 55.7698 27.352 56.6445 26.584C57.5405 25.816 57.9885 24.952 57.9885 23.992ZM75.3255 10.936L69.4695 11.64C68.4028 10.3387 68.1682 9.02667 68.7655 7.704C72.4988 7.40533 75.6455 7.23467 78.2055 7.192C80.7655 7.14933 84.1362 7.23466 88.3175 7.448C89.1068 8.42933 88.9575 9.76267 87.8695 11.448L80.8615 10.712L79.2935 16.792C78.8242 24.1307 78.5468 28.632 78.4615 30.296C77.5655 30.9147 76.2962 31.1173 74.6535 30.904C73.0322 30.6693 72.0402 30.1893 71.6775 29.464C73.2348 24.536 74.4402 19.3307 75.2935 13.848L75.3255 10.936Z" fill="#F05C2B"/>
<path d="M8.25589 47.3982L90.6309 37.1848" stroke="#FFC727" stroke-width="10"/>
</g>
<defs>
<clipPath id="clip0_2399_12714">
<rect width="88" height="56" fill="white"/>
</clipPath>
</defs>
</svg>
