<svg width="112" height="56" viewBox="0 0 112 56" fill="none" xmlns="http://www.w3.org/2000/svg">
<g clip-path="url(#clip0_2399_12715)">
<path d="M14.52 7.48L13.28 10.84L12.12 17.52C13.5867 17.3067 16.6267 16.92 21.24 16.36C21.7733 16.76 22.0267 17.4667 22 18.48C21.9733 19.4667 21.6533 20.4 21.04 21.28C18.2933 20.9333 15.16 20.76 11.64 20.76C11.2933 23.72 11.04 27.5067 10.88 32.12C9.97333 32.84 8.50667 33.08 6.48 32.84C4.45333 32.6 3.09333 32.0133 2.4 31.08C4.58667 25.1867 6.2 19.1467 7.24 12.96L7 7.52C6.12 7.17333 5.25333 6.92 4.4 6.76C3.94667 5.45333 4.04 4.48 4.68 3.84C8.86667 3.46667 12.4533 3.26667 15.44 3.24C18.4533 3.18667 22.2 3.28 26.68 3.52C27.4 4.88 27.5067 6.17333 27 7.4C26.4933 8.62666 25.4667 9.64 23.92 10.44L20.4 7.32C17.8933 7.21333 15.9333 7.26667 14.52 7.48ZM49.6678 18.32L54.1478 17.52C55.0811 18.32 55.0145 19.5733 53.9478 21.28L49.9478 21.56L50.9478 32.2C50.0678 32.8933 48.6411 33.16 46.6678 33C44.6945 32.8133 43.1078 32.2933 41.9078 31.44L43.1478 22L37.3878 22.4L33.7478 32.2C32.4945 32.8667 30.9745 33.0933 29.1878 32.88C27.4011 32.64 26.2678 32.1067 25.7878 31.28L30.0278 23.08L27.3478 23.36C26.3078 22.2933 26.3611 21.0267 27.5078 19.56L31.8678 19.52L35.0278 13.44L37.7078 4.68C39.2278 4.01333 40.8411 3.57333 42.5478 3.36C45.7478 2.96 48.1745 3.17333 49.8278 4L48.9478 10.68L49.6678 18.32ZM42.5478 8.36L38.4678 19.44L43.4678 19.4L43.1078 8.24L42.5478 8.36ZM72.4856 24.24C72.4856 23.7067 72.019 23.1467 71.0856 22.56C70.179 21.9733 69.0456 21.3467 67.6856 20.68C66.3256 20.0133 64.9523 19.28 63.5656 18.48C62.2056 17.68 60.979 16.6667 59.8856 15.44C58.7923 14.1867 58.139 12.8267 57.9256 11.36C59.0723 8.93333 60.859 6.96 63.2856 5.44C65.7123 3.89333 68.4456 2.96 71.4856 2.64C73.6456 2.90667 75.5523 3.56 77.2056 4.6C78.859 5.64 80.1256 6.94667 81.0056 8.52C80.3123 11.5333 77.939 12.64 73.8856 11.84C73.5123 9.49333 72.659 7.61333 71.3256 6.2C69.939 6.6 68.5923 7.25333 67.2856 8.16C66.0056 9.04 65.379 9.82667 65.4056 10.52C65.4056 11.0267 65.859 11.6133 66.7656 12.28C67.6723 12.92 68.7923 13.6 70.1256 14.32C71.4856 15.04 72.859 15.8133 74.2456 16.64C75.659 17.44 76.9523 18.4 78.1256 19.52C79.299 20.6133 80.0723 21.72 80.4456 22.84C80.019 25.64 78.539 27.9333 76.0056 29.72C73.499 31.5067 70.299 32.6 66.4056 33C63.9523 32.5467 61.6856 31.6933 59.6056 30.44C57.5523 29.16 56.1523 27.7467 55.4056 26.2C56.259 24.5467 57.259 23.3467 58.4056 22.6C59.579 21.8533 61.0723 21.76 62.8856 22.32C63.179 23.76 63.619 25.0133 64.2056 26.08C64.7923 27.1467 65.6323 28.2667 66.7256 29.44C68.3523 29.0933 69.7123 28.44 70.8056 27.48C71.9256 26.52 72.4856 25.44 72.4856 24.24ZM94.1569 7.92L86.8369 8.8C85.5035 7.17333 85.2102 5.53333 85.9569 3.88C90.6235 3.50666 94.5569 3.29333 97.7569 3.24C100.957 3.18667 105.17 3.29333 110.397 3.56C111.384 4.78666 111.197 6.45333 109.837 8.56L101.077 7.64L99.1169 15.24C98.5302 24.4133 98.1835 30.04 98.0769 32.12C96.9569 32.8933 95.3702 33.1467 93.3169 32.88C91.2902 32.5867 90.0502 31.9867 89.5969 31.08C91.5435 24.92 93.0502 18.4133 94.1169 11.56L94.1569 7.92Z" fill="#F05C2B"/>
<path d="M38.2559 47.3982L120.631 37.1848" stroke="#FFC727" stroke-width="10"/>
</g>
<defs>
<clipPath id="clip0_2399_12715">
<rect width="112" height="56" fill="white"/>
</clipPath>
</defs>
</svg>
