<svg width="48" height="48" viewBox="0 0 48 48" fill="none" xmlns="http://www.w3.org/2000/svg">
<path d="M10.4784 12.0452L5.26172 17.2617L17.2336 29.2325L22.4503 24.016L10.4784 12.0452Z" fill="#FB7452"/>
<path d="M17.2648 5.25897L12.0469 10.4766L17.2648 15.6942L22.4827 10.4766L17.2648 5.25897Z" fill="#DD1D94"/>
<path d="M10.4435 25.5832L5.22559 30.8008L10.4435 36.0184L15.6614 30.8008L10.4435 25.5832Z" fill="#FB7452"/>
<path d="M30.8021 5.22493L18.7959 17.2305L24.0161 22.4504L36.0223 10.4448L30.8021 5.22493Z" fill="#DD1D94"/>
<path d="M23.9867 25.557L11.9805 37.5625L17.1972 42.7789L29.2034 30.7734L23.9867 25.557Z" fill="#E1517D"/>
<path d="M30.7675 18.764L25.5508 23.9805L37.5225 35.9515L42.7392 30.735L30.7675 18.764Z" fill="#5F3A9F"/>
<path d="M37.5568 11.9777L32.3389 17.1953L37.5568 22.4129L42.7747 17.1953L37.5568 11.9777Z" fill="#5F3A9F"/>
<path d="M30.7355 32.3019L25.5176 37.5195L30.7355 42.7371L35.9534 37.5195L30.7355 32.3019Z" fill="#E1517D"/>
<path d="M3.68961 27.7343C5.72733 27.7343 7.37922 26.0825 7.37922 24.0449C7.37922 22.0073 5.72733 20.3555 3.68961 20.3555C1.6519 20.3555 0 22.0073 0 24.0449C0 26.0825 1.6519 27.7343 3.68961 27.7343Z" fill="#FB7452"/>
<path d="M24.049 7.37879C26.0867 7.37879 27.7386 5.727 27.7386 3.6894C27.7386 1.6518 26.0867 0 24.049 0C22.0113 0 20.3594 1.6518 20.3594 3.6894C20.3594 5.727 22.0113 7.37879 24.049 7.37879Z" fill="#DD1D94"/>
<path d="M23.9484 47.9999C25.9861 47.9999 27.638 46.3481 27.638 44.3105C27.638 42.2729 25.9861 40.6211 23.9484 40.6211C21.9107 40.6211 20.2588 42.2729 20.2588 44.3105C20.2588 46.3481 21.9107 47.9999 23.9484 47.9999Z" fill="#E1517D"/>
<path d="M44.3107 27.6327C46.3484 27.6327 48.0003 25.9809 48.0003 23.9433C48.0003 21.9057 46.3484 20.2539 44.3107 20.2539C42.273 20.2539 40.6211 21.9057 40.6211 23.9433C40.6211 25.9809 42.273 27.6327 44.3107 27.6327Z" fill="#5F3A9F"/>
</svg>
