<svg width="48" height="48" viewBox="0 0 48 48" fill="none" xmlns="http://www.w3.org/2000/svg">
<path d="M10.4783 12.0529L5.26172 17.2695L17.2335 29.2404L22.4501 24.0239L10.4783 12.0529Z" fill="#F05C2B"/>
<path d="M17.2647 5.25891L12.0469 10.4766L17.2647 15.6942L22.4825 10.4766L17.2647 5.25891Z" fill="#F05C2B"/>
<path d="M10.4405 25.5909L5.22266 30.8086L10.4405 36.0262L15.6583 30.8086L10.4405 25.5909Z" fill="#F05C2B"/>
<path d="M30.8029 5.20137L18.7969 17.207L24.017 22.427L36.023 10.4213L30.8029 5.20137Z" fill="#F05C2B"/>
<path d="M23.9865 25.5529L11.9805 37.5586L17.1971 42.7751L29.2031 30.7694L23.9865 25.5529Z" fill="#F05C2B"/>
<path d="M30.7674 18.7601L25.5508 23.9766L37.5222 35.9477L42.7389 30.7312L30.7674 18.7601Z" fill="#F05C2B"/>
<path d="M37.5576 11.9698L32.3398 17.1875L37.5576 22.4052L42.7755 17.1875L37.5576 11.9698Z" fill="#F05C2B"/>
<path d="M30.7335 32.298L25.5156 37.5156L30.7335 42.7333L35.9513 37.5156L30.7335 32.298Z" fill="#F05C2B"/>
<path d="M3.68956 27.7304C5.72725 27.7304 7.37913 26.0786 7.37913 24.041C7.37913 22.0034 5.72725 20.3516 3.68956 20.3516C1.65187 20.3516 0 22.0034 0 24.041C0 26.0786 1.65187 27.7304 3.68956 27.7304Z" fill="#F05C2B"/>
<path d="M24.0489 7.37886C26.0866 7.37886 27.7385 5.72704 27.7385 3.68943C27.7385 1.65181 26.0866 0 24.0489 0C22.0112 0 20.3594 1.65181 20.3594 3.68943C20.3594 5.72704 22.0112 7.37886 24.0489 7.37886Z" fill="#F05C2B"/>
<path d="M23.9474 48C25.9851 48 27.6369 46.3481 27.6369 44.3105C27.6369 42.2729 25.9851 40.6211 23.9474 40.6211C21.9097 40.6211 20.2578 42.2729 20.2578 44.3105C20.2578 46.3481 21.9097 48 23.9474 48Z" fill="#F05C2B"/>
<path d="M44.3107 27.6289C46.3484 27.6289 48.0002 25.977 48.0002 23.9394C48.0002 21.9018 46.3484 20.25 44.3107 20.25C42.273 20.25 40.6211 21.9018 40.6211 23.9394C40.6211 25.977 42.273 27.6289 44.3107 27.6289Z" fill="#F05C2B"/>
</svg>
