<svg width="250" height="125" viewBox="0 0 250 125" fill="none" xmlns="http://www.w3.org/2000/svg">
<path d="M24.8359 85.3029L25.2349 84.7443L44.1031 48.9425L44.1429 48.5635L35.8257 32.9401C35.1285 31.6314 33.1666 31.9622 32.938 33.4272L24.8359 85.3029Z" fill="#FFC24A"/>
<path d="M25.0703 84.8784L25.3719 84.2902L44.0406 48.8635L35.746 33.1766C35.0563 31.8815 33.3055 32.2116 33.0775 33.6615L25.0703 84.8784Z" fill="#FFA712"/>
<path d="M25.0703 84.8784L25.3719 84.2902L44.0406 48.8635L35.746 33.1766C35.0563 31.8815 33.3055 32.2116 33.0775 33.6615L25.0703 84.8784Z" fill="black"/>
<path d="M50.2055 60.3842L56.3985 54.0418L50.2038 42.2158C49.6156 41.0963 47.9737 41.0931 47.3919 42.2158L44.082 48.53V49.0675L50.2055 60.3842Z" fill="#F4BD62"/>
<path d="M50.0976 60.1199L56.1182 53.9538L50.0976 42.4892C49.5259 41.3992 48.137 41.2868 47.5713 42.3764L44.2441 48.7846L44.1445 49.1123L50.0976 60.1199Z" fill="#FFA50E"/>
<path d="M50.0976 60.1199L56.1182 53.9538L50.0976 42.4892C49.5259 41.3992 48.137 41.2868 47.5713 42.3764L44.2441 48.7846L44.1445 49.1123L50.0976 60.1199Z" fill="black"/>
<path d="M44.1005 48.4922L24.8359 85.305L25.0167 85.1231L25.6737 84.8562L49.8177 60.8021L50.1232 59.9696L44.1005 48.4922Z" fill="#F6820C"/>
<path d="M50.9798 97.435L72.8305 85.2486L66.5924 46.818C66.397 45.6157 64.9222 45.1402 64.0617 46.0024L24.8359 85.3042L46.5613 97.4343C47.2366 97.8112 47.9971 98.0092 48.7705 98.0094C49.5439 98.0095 50.3045 97.8119 50.98 97.4352" fill="#FDE068"/>
<path d="M72.6367 85.1454L66.4442 47.0079C66.2507 45.8146 65.0235 45.3209 64.1696 46.1765L25.082 85.228L46.5688 97.2363C47.9312 97.997 49.5906 97.9974 50.9538 97.2374L72.6367 85.1454Z" fill="#FCCA3F"/>
<path d="M50.9798 97.0745C49.6079 97.8405 47.9341 97.8401 46.5611 97.0734L25.0107 85.1179L24.8359 85.3026L46.5613 97.4327C47.9343 98.1994 49.6064 98.1994 50.98 97.4336L72.8307 85.2472L72.7771 84.918L50.9798 97.0745Z" fill="#EEAB37"/>
<path d="M89.375 79.6616H85.6562V50.7199H102.531V54.2762H89.375V63.7762H101.26V67.2553H89.375V79.6616ZM109.069 54.8824C108.556 55.3949 107.937 55.6532 107.21 55.6532C106.864 55.6592 106.521 55.5939 106.201 55.4613C105.881 55.3286 105.592 55.1316 105.352 54.8824C105.104 54.6414 104.908 54.3523 104.775 54.0328C104.642 53.7132 104.577 53.37 104.581 53.0241C104.575 52.678 104.641 52.3344 104.773 52.0147C104.906 51.695 105.103 51.406 105.352 51.1657C105.593 50.9176 105.882 50.7212 106.202 50.5886C106.521 50.4561 106.865 50.3902 107.21 50.3949C107.556 50.3889 107.9 50.4543 108.22 50.5869C108.54 50.7195 108.829 50.9166 109.069 51.1657C109.317 51.4067 109.513 51.6959 109.646 52.0154C109.778 52.3349 109.844 52.6782 109.84 53.0241C109.846 53.3702 109.78 53.7138 109.648 54.0335C109.515 54.3532 109.318 54.6422 109.069 54.8824ZM109.069 79.6616H105.35V59.8553H109.069V79.6616ZM117.096 79.6616H113.375V59.8553H116.931V63.0887H117.092C117.467 62.0116 118.244 61.122 119.417 60.422C120.59 59.722 121.708 59.3699 122.833 59.3699C123.958 59.3699 124.869 59.5324 125.625 59.8553L124.208 63.3345C123.723 63.1262 123.062 63.0512 122.229 63.0512C120.881 63.0512 119.687 63.5824 118.652 64.647C117.617 65.7116 117.096 67.1053 117.096 68.8303V79.6637V79.6616ZM135.404 80.2866C132.413 80.2866 129.981 79.2907 128.108 77.2949C126.235 75.2991 125.296 72.7824 125.296 69.7366C125.296 66.8532 126.204 64.3741 128.004 62.2991C129.804 60.2241 132.171 59.1866 134.977 59.1866C137.894 59.1866 140.265 60.1449 142.031 62.0574C143.798 63.9699 144.677 66.5303 144.677 69.7387L144.635 70.4262H129.01C129.119 72.4199 129.785 73.997 131.01 75.1553C131.579 75.7137 132.252 76.1546 132.991 76.4527C133.729 76.7508 134.52 76.9004 135.317 76.8928C137.983 76.8928 139.79 75.7616 140.733 73.497L144.067 74.872C143.442 76.4074 142.354 77.6949 140.873 78.7324C139.392 79.7699 137.571 80.2887 135.415 80.2887L135.404 80.2866ZM140.737 67.3699C140.654 66.2387 140.137 65.1616 139.181 64.1366C138.225 63.1116 136.802 62.6012 134.917 62.6012C133.542 62.6012 132.35 63.0324 131.34 63.8928C130.329 64.7532 129.635 65.9137 129.256 67.372H140.715L140.737 67.3699ZM158.16 80.2866C156.65 80.2866 155.296 79.9637 154.098 79.3157C152.9 78.6678 152.002 77.8616 151.39 76.8907H151.25V79.6407H147.694V50.7199H151.412V59.8553L151.25 62.6053H151.412C152.006 61.6345 152.902 60.8262 154.121 60.1803C155.34 59.5345 156.675 59.2095 158.183 59.2095C160.746 59.2095 162.975 60.2199 164.812 62.2407C166.65 64.2616 167.604 66.7678 167.604 69.7407C167.604 72.7137 166.675 75.2407 164.812 77.2407C162.95 79.2407 160.744 80.272 158.183 80.272L158.16 80.2866ZM157.535 76.8907C159.26 76.8907 160.744 76.2366 161.981 74.9324C163.219 73.6282 163.84 71.8949 163.84 69.7387C163.84 67.5824 163.219 65.8512 161.981 64.5449C160.744 63.2387 159.258 62.5866 157.535 62.5866C156.695 62.5701 155.862 62.7346 155.091 63.0689C154.32 63.4033 153.631 63.8995 153.069 64.5241C151.844 65.8366 151.229 67.5553 151.229 69.7387C151.229 71.922 151.842 73.6595 153.069 74.9532C154.296 76.247 155.783 76.8949 157.535 76.8949V76.8907ZM177.354 80.2866C175.271 80.2866 173.494 79.6616 172.079 78.4678C170.665 77.2741 169.954 75.6512 169.954 73.6762C169.954 71.5199 170.787 69.8303 172.46 68.6032C174.133 67.3762 176.194 66.7637 178.648 66.7637C180.831 66.7637 182.623 67.1678 184.023 67.9762V67.4095C184.023 65.9512 183.523 64.7887 182.527 63.9137C181.531 63.0387 180.304 62.6012 178.848 62.6012C177.769 62.6012 176.792 62.8574 175.917 63.372C175.084 63.8337 174.446 64.58 174.119 65.4741L170.723 64.0199C171.181 62.8324 172.083 61.7366 173.431 60.7282C174.779 59.7199 176.556 59.2116 178.765 59.2116C181.298 59.2116 183.4 59.9532 185.071 61.4345C186.742 62.9157 187.577 65.0053 187.577 67.6991V79.6637H184.042V76.9137H183.879C182.396 79.1762 180.227 80.3095 177.371 80.3095L177.354 80.2866ZM177.979 76.8907C179.515 76.8907 180.91 76.3178 182.162 75.172C183.415 74.0262 184.042 72.672 184.042 71.1095C182.992 70.247 181.417 69.8178 179.312 69.8178C177.506 69.8178 176.146 70.2095 175.229 70.9907C174.312 71.772 173.854 72.6887 173.854 73.7407C173.854 74.7116 174.271 75.4782 175.108 76.0449C175.946 76.6116 176.9 76.8949 177.979 76.8949V76.8907ZM198.396 80.2866C196.188 80.2866 194.36 79.7449 192.917 78.6699C191.51 77.6374 190.413 76.2397 189.744 74.6282L193.077 73.2532C194.127 75.7532 195.921 76.972 198.452 76.972C199.61 76.972 200.56 76.7157 201.302 76.2012C202.044 75.6866 202.415 75.0137 202.415 74.1803C202.415 72.8887 201.512 72.0137 199.706 71.5553L195.706 70.5845C194.44 70.2616 193.24 69.647 192.108 68.7449C190.977 67.8428 190.417 66.6678 190.417 65.1095C190.417 63.3595 191.192 61.9366 192.742 60.8449C194.292 59.7532 196.131 59.2074 198.262 59.2074C200.012 59.2074 201.596 59.6241 202.95 60.3991C204.304 61.1741 205.308 62.3324 205.902 63.8157L202.669 65.1491C201.94 63.3991 200.431 62.5241 198.142 62.5241C197.037 62.5241 196.106 62.7324 195.35 63.2116C194.594 63.6907 194.219 64.2887 194.219 65.0699C194.219 66.2012 195.094 66.9699 196.844 67.3741L200.765 68.3032C202.623 68.7345 203.998 69.4762 204.89 70.5262C205.781 71.5762 206.223 72.7637 206.223 74.0824C206.223 75.8616 205.494 77.3428 204.04 78.5282C202.585 79.7137 200.71 80.3074 198.421 80.3074L198.396 80.2866ZM218.202 80.2866C215.21 80.2866 212.777 79.2907 210.906 77.2949C209.035 75.2991 208.094 72.7824 208.094 69.7366C208.094 66.8532 209.002 64.3741 210.802 62.2991C212.602 60.2241 214.969 59.1866 217.775 59.1866C220.692 59.1866 223.062 60.1449 224.829 62.0574C226.596 63.9699 227.475 66.5303 227.475 69.7387V70.4262H211.85C211.954 72.4199 212.625 73.997 213.85 75.1553C214.418 75.7135 215.091 76.1542 215.829 76.4523C216.568 76.7504 217.358 76.9001 218.154 76.8928C220.821 76.8928 222.627 75.7616 223.571 73.497L226.904 74.872C226.279 76.4074 225.192 77.6949 223.71 78.7324C222.229 79.7699 220.408 80.2887 218.252 80.2887L218.202 80.2866ZM223.535 67.3699C223.452 66.2387 222.935 65.1616 221.979 64.1366C221.023 63.1116 219.6 62.6012 217.715 62.6012C216.404 62.5781 215.13 63.0387 214.137 63.8949C213.127 64.7574 212.433 65.9157 212.054 67.3741H223.513L223.535 67.3699Z" fill="#63666A"/>
</svg>
