<svg width="681" height="363" viewBox="0 0 681 363" fill="none" xmlns="http://www.w3.org/2000/svg">
<g opacity="0.5">
<path d="M256.25 181.25L231.25 206.25M156.25 181.25L131.25 206.25H106.25H81.25L56.25 181.25H31.25H6.25M306.25 181.25L281.25 206.25M506.25 181.25L481.25 206.25H456.25H431.25M206.25 181.25L181.25 206.25H156.25L131.25 231.25H106.25M531.25 206.25H506.25M681.25 181.25H656.25H631.25H606.25L581.25 206.25H556.25H531.25L506.25 181.25H481.25H456.25H431.25H406.25H381.25H356.25H331.25H306.25H281.25H256.25H231.25H206.25H181.25H156.25H131.25H106.25H81.25L56.25 156.25H31.25" stroke="#FFC727" stroke-width="4.17"/>
<path d="M25 156.25C25 157.908 25.6585 159.497 26.8306 160.669C28.0027 161.842 29.5924 162.5 31.25 162.5C32.9076 162.5 34.4973 161.842 35.6694 160.669C36.8415 159.497 37.5 157.908 37.5 156.25C37.5 154.592 36.8415 153.003 35.6694 151.831C34.4973 150.658 32.9076 150 31.25 150C29.5924 150 28.0027 150.658 26.8306 151.831C25.6585 153.003 25 154.592 25 156.25ZM225 206.25C225 207.908 225.658 209.497 226.831 210.669C228.003 211.842 229.592 212.5 231.25 212.5C232.908 212.5 234.497 211.842 235.669 210.669C236.842 209.497 237.5 207.908 237.5 206.25C237.5 204.592 236.842 203.003 235.669 201.831C234.497 200.658 232.908 200 231.25 200C229.592 200 228.003 200.658 226.831 201.831C225.658 203.003 225 204.592 225 206.25ZM0 181.25C0 182.908 0.658464 184.497 1.83057 185.669C3.00267 186.842 4.5924 187.5 6.25 187.5C7.9076 187.5 9.49733 186.842 10.6694 185.669C11.8415 184.497 12.5 182.908 12.5 181.25C12.5 179.592 11.8415 178.003 10.6694 176.831C9.49733 175.658 7.9076 175 6.25 175C4.5924 175 3.00267 175.658 1.83057 176.831C0.658464 178.003 0 179.592 0 181.25ZM275 206.25C275 207.908 275.658 209.497 276.831 210.669C278.003 211.842 279.592 212.5 281.25 212.5C282.908 212.5 284.497 211.842 285.669 210.669C286.842 209.497 287.5 207.908 287.5 206.25C287.5 204.592 286.842 203.003 285.669 201.831C284.497 200.658 282.908 200 281.25 200C279.592 200 278.003 200.658 276.831 201.831C275.658 203.003 275 204.592 275 206.25ZM425 206.25C425 207.908 425.658 209.497 426.831 210.669C428.003 211.842 429.592 212.5 431.25 212.5C432.908 212.5 434.497 211.842 435.669 210.669C436.842 209.497 437.5 207.908 437.5 206.25C437.5 204.592 436.842 203.003 435.669 201.831C434.497 200.658 432.908 200 431.25 200C429.592 200 428.003 200.658 426.831 201.831C425.658 203.003 425 204.592 425 206.25ZM100 231.25C100 232.908 100.658 234.497 101.831 235.669C103.003 236.842 104.592 237.5 106.25 237.5C107.908 237.5 109.497 236.842 110.669 235.669C111.842 234.497 112.5 232.908 112.5 231.25C112.5 229.592 111.842 228.003 110.669 226.831C109.497 225.658 107.908 225 106.25 225C104.592 225 103.003 225.658 101.831 226.831C100.658 228.003 100 229.592 100 231.25ZM500 206.25C500 207.908 500.658 209.497 501.831 210.669C503.003 211.842 504.592 212.5 506.25 212.5C507.908 212.5 509.497 211.842 510.669 210.669C511.842 209.497 512.5 207.908 512.5 206.25C512.5 204.592 511.842 203.003 510.669 201.831C509.497 200.658 507.908 200 506.25 200C504.592 200 503.003 200.658 501.831 201.831C500.658 203.003 500 204.592 500 206.25Z" fill="#FFC727"/>
<path d="M131.25 156.25L106.25 131.25H81.25M481.25 156.25L456.25 131.25H431.25H406.25H381.25H356.25M281.25 156.25L256.25 131.25H231.25H206.25H181.25H156.25M506.25 156.25L481.25 131.25M606.25 156.25H581.25H556.25H531.25L506.25 131.25M331.25 156.25L306.25 131.25H281.25M681.25 156.25H656.25H631.25H606.25L581.25 181.25H556.25H531.25L506.25 156.25H481.25H456.25H431.25H406.25H381.25H356.25H331.25H306.25H281.25H256.25H231.25H206.25H181.25H156.25H131.25H106.25H81.25L56.25 131.25H31.25" stroke="#FF473E" stroke-width="4.17"/>
<path d="M25 131.25C25 132.908 25.6585 134.497 26.8306 135.669C28.0027 136.842 29.5924 137.5 31.25 137.5C32.9076 137.5 34.4973 136.842 35.6694 135.669C36.8415 134.497 37.5 132.908 37.5 131.25C37.5 129.592 36.8415 128.003 35.6694 126.831C34.4973 125.658 32.9076 125 31.25 125C29.5924 125 28.0027 125.658 26.8306 126.831C25.6585 128.003 25 129.592 25 131.25ZM75 131.25C75 132.908 75.6585 134.497 76.8306 135.669C78.0027 136.842 79.5924 137.5 81.25 137.5C82.9076 137.5 84.4973 136.842 85.6694 135.669C86.8415 134.497 87.5 132.908 87.5 131.25C87.5 129.592 86.8415 128.003 85.6694 126.831C84.4973 125.658 82.9076 125 81.25 125C79.5924 125 78.0027 125.658 76.8306 126.831C75.6585 128.003 75 129.592 75 131.25ZM350 131.25C350 132.908 350.658 134.497 351.831 135.669C353.003 136.842 354.592 137.5 356.25 137.5C357.908 137.5 359.497 136.842 360.669 135.669C361.842 134.497 362.5 132.908 362.5 131.25C362.5 129.592 361.842 128.003 360.669 126.831C359.497 125.658 357.908 125 356.25 125C354.592 125 353.003 125.658 351.831 126.831C350.658 128.003 350 129.592 350 131.25ZM150 131.25C150 132.908 150.658 134.497 151.831 135.669C153.003 136.842 154.592 137.5 156.25 137.5C157.908 137.5 159.497 136.842 160.669 135.669C161.842 134.497 162.5 132.908 162.5 131.25C162.5 129.592 161.842 128.003 160.669 126.831C159.497 125.658 157.908 125 156.25 125C154.592 125 153.003 125.658 151.831 126.831C150.658 128.003 150 129.592 150 131.25ZM475 131.25C475 132.908 475.658 134.497 476.831 135.669C478.003 136.842 479.592 137.5 481.25 137.5C482.908 137.5 484.497 136.842 485.669 135.669C486.842 134.497 487.5 132.908 487.5 131.25C487.5 129.592 486.842 128.003 485.669 126.831C484.497 125.658 482.908 125 481.25 125C479.592 125 478.003 125.658 476.831 126.831C475.658 128.003 475 129.592 475 131.25ZM500 131.25C500 132.908 500.658 134.497 501.831 135.669C503.003 136.842 504.592 137.5 506.25 137.5C507.908 137.5 509.497 136.842 510.669 135.669C511.842 134.497 512.5 132.908 512.5 131.25C512.5 129.592 511.842 128.003 510.669 126.831C509.497 125.658 507.908 125 506.25 125C504.592 125 503.003 125.658 501.831 126.831C500.658 128.003 500 129.592 500 131.25ZM275 131.25C275 132.908 275.658 134.497 276.831 135.669C278.003 136.842 279.592 137.5 281.25 137.5C282.908 137.5 284.497 136.842 285.669 135.669C286.842 134.497 287.5 132.908 287.5 131.25C287.5 129.592 286.842 128.003 285.669 126.831C284.497 125.658 282.908 125 281.25 125C279.592 125 278.003 125.658 276.831 126.831C275.658 128.003 275 129.592 275 131.25Z" fill="#FF473E"/>
<path d="M456.25 231.25L431.25 256.25M431.25 231.25H406.25M381.25 206.25L356.25 231.25M681.25 206.25H656.25L631.25 231.25H606.25H581.25H556.25H531.25H506.25H481.25H456.25H431.25L406.25 206.25H381.25H356.25H331.25" stroke="#FF473E" stroke-width="4.17"/>
<path d="M325 206.25C325 207.908 325.658 209.497 326.831 210.669C328.003 211.842 329.592 212.5 331.25 212.5C332.908 212.5 334.497 211.842 335.669 210.669C336.842 209.497 337.5 207.908 337.5 206.25C337.5 204.592 336.842 203.003 335.669 201.831C334.497 200.658 332.908 200 331.25 200C329.592 200 328.003 200.658 326.831 201.831C325.658 203.003 325 204.592 325 206.25ZM425 256.25C425 257.908 425.658 259.497 426.831 260.669C428.003 261.842 429.592 262.5 431.25 262.5C432.908 262.5 434.497 261.842 435.669 260.669C436.842 259.497 437.5 257.908 437.5 256.25C437.5 254.592 436.842 253.003 435.669 251.831C434.497 250.658 432.908 250 431.25 250C429.592 250 428.003 250.658 426.831 251.831C425.658 253.003 425 254.592 425 256.25ZM400 231.25C400 232.908 400.658 234.497 401.831 235.669C403.003 236.842 404.592 237.5 406.25 237.5C407.908 237.5 409.497 236.842 410.669 235.669C411.842 234.497 412.5 232.908 412.5 231.25C412.5 229.592 411.842 228.003 410.669 226.831C409.497 225.658 407.908 225 406.25 225C404.592 225 403.003 225.658 401.831 226.831C400.658 228.003 400 229.592 400 231.25ZM350 231.25C350 232.908 350.658 234.497 351.831 235.669C353.003 236.842 354.592 237.5 356.25 237.5C357.908 237.5 359.497 236.842 360.669 235.669C361.842 234.497 362.5 232.908 362.5 231.25C362.5 229.592 361.842 228.003 360.669 226.831C359.497 225.658 357.908 225 356.25 225C354.592 225 353.003 225.658 351.831 226.831C350.658 228.003 350 229.592 350 231.25Z" fill="#FF473E"/>
<path d="M181.25 106.25L156.25 81.25M256.25 106.25L231.25 81.25H206.25H181.25L156.25 56.25H131.25H106.25M556.25 106.25L531.25 131.25M281.25 106.25L256.25 81.25L231.25 56.25H206.25H181.25M106.25 106.25L81.25 81.25H56.25H31.25H6.25M631.25 131.25L606.25 106.25H581.25M681.25 131.25H656.25H631.25H606.25H581.25L556.25 106.25H531.25H506.25H481.25H456.25H431.25H406.25H381.25H356.25H331.25H306.25H281.25H256.25H231.25H206.25H181.25H156.25H131.25H106.25H81.25H56.25" stroke="#FF473E" stroke-width="4.17"/>
<path d="M50 106.25C50 107.908 50.6585 109.497 51.8306 110.669C53.0027 111.842 54.5924 112.5 56.25 112.5C57.9076 112.5 59.4973 111.842 60.6694 110.669C61.8415 109.497 62.5 107.908 62.5 106.25C62.5 104.592 61.8415 103.003 60.6694 101.831C59.4973 100.658 57.9076 100 56.25 100C54.5924 100 53.0027 100.658 51.8306 101.831C50.6585 103.003 50 104.592 50 106.25ZM150 81.25C150 82.9076 150.658 84.4973 151.831 85.6694C153.003 86.8415 154.592 87.5 156.25 87.5C157.908 87.5 159.497 86.8415 160.669 85.6694C161.842 84.4973 162.5 82.9076 162.5 81.25C162.5 79.5924 161.842 78.0027 160.669 76.8306C159.497 75.6585 157.908 75 156.25 75C154.592 75 153.003 75.6585 151.831 76.8306C150.658 78.0027 150 79.5924 150 81.25ZM100 56.25C100 57.9076 100.658 59.4973 101.831 60.6694C103.003 61.8415 104.592 62.5 106.25 62.5C107.908 62.5 109.497 61.8415 110.669 60.6694C111.842 59.4973 112.5 57.9076 112.5 56.25C112.5 54.5924 111.842 53.0027 110.669 51.8306C109.497 50.6585 107.908 50 106.25 50C104.592 50 103.003 50.6585 101.831 51.8306C100.658 53.0027 100 54.5924 100 56.25ZM525 131.25C525 132.908 525.658 134.497 526.831 135.669C528.003 136.842 529.592 137.5 531.25 137.5C532.908 137.5 534.497 136.842 535.669 135.669C536.842 134.497 537.5 132.908 537.5 131.25C537.5 129.592 536.842 128.003 535.669 126.831C534.497 125.658 532.908 125 531.25 125C529.592 125 528.003 125.658 526.831 126.831C525.658 128.003 525 129.592 525 131.25ZM175 56.25C175 57.9076 175.658 59.4973 176.831 60.6694C178.003 61.8415 179.592 62.5 181.25 62.5C182.908 62.5 184.497 61.8415 185.669 60.6694C186.842 59.4973 187.5 57.9076 187.5 56.25C187.5 54.5924 186.842 53.0027 185.669 51.8306C184.497 50.6585 182.908 50 181.25 50C179.592 50 178.003 50.6585 176.831 51.8306C175.658 53.0027 175 54.5924 175 56.25ZM0 81.25C0 82.9076 0.658464 84.4973 1.83057 85.6694C3.00267 86.8415 4.5924 87.5 6.25 87.5C7.9076 87.5 9.49733 86.8415 10.6694 85.6694C11.8415 84.4973 12.5 82.9076 12.5 81.25C12.5 79.5924 11.8415 78.0027 10.6694 76.8306C9.49733 75.6585 7.9076 75 6.25 75C4.5924 75 3.00267 75.6585 1.83057 76.8306C0.658464 78.0027 0 79.5924 0 81.25ZM575 106.25C575 107.908 575.658 109.497 576.831 110.669C578.003 111.842 579.592 112.5 581.25 112.5C582.908 112.5 584.497 111.842 585.669 110.669C586.842 109.497 587.5 107.908 587.5 106.25C587.5 104.592 586.842 103.003 585.669 101.831C584.497 100.658 582.908 100 581.25 100C579.592 100 578.003 100.658 576.831 101.831C575.658 103.003 575 104.592 575 106.25Z" fill="#FF473E"/>
<path d="M681.25 231.25H656.25L631.25 256.25H606.25H581.25H556.25" stroke="#FFC727" stroke-width="4.17"/>
<path d="M550 256.25C550 257.908 550.658 259.497 551.831 260.669C553.003 261.842 554.592 262.5 556.25 262.5C557.908 262.5 559.497 261.842 560.669 260.669C561.842 259.497 562.5 257.908 562.5 256.25C562.5 254.592 561.842 253.003 560.669 251.831C559.497 250.658 557.908 250 556.25 250C554.592 250 553.003 250.658 551.831 251.831C550.658 253.003 550 254.592 550 256.25Z" fill="#FFC727"/>
<path d="M656.25 106.25H631.25M681.25 106.25H656.25L631.25 81.25H606.25H581.25H556.25H531.25" stroke="#FF473E" stroke-width="4.17"/>
<path d="M525 81.25C525 82.9076 525.658 84.4973 526.831 85.6694C528.003 86.8415 529.592 87.5 531.25 87.5C532.908 87.5 534.497 86.8415 535.669 85.6694C536.842 84.4973 537.5 82.9076 537.5 81.25C537.5 79.5924 536.842 78.0027 535.669 76.8306C534.497 75.6585 532.908 75 531.25 75C529.592 75 528.003 75.6585 526.831 76.8306C525.658 78.0027 525 79.5924 525 81.25ZM625 106.25C625 107.908 625.658 109.497 626.831 110.669C628.003 111.842 629.592 112.5 631.25 112.5C632.908 112.5 634.497 111.842 635.669 110.669C636.842 109.497 637.5 107.908 637.5 106.25C637.5 104.592 636.842 103.003 635.669 101.831C634.497 100.658 632.908 100 631.25 100C629.592 100 628.003 100.658 626.831 101.831C625.658 103.003 625 104.592 625 106.25Z" fill="#FF473E"/>
<path d="M506.25 281.25L481.25 256.25M381.25 281.25L356.25 256.25H331.25M406.25 281.25L381.25 256.25M681.25 256.25H656.25L631.25 281.25H606.25H581.25H556.25H531.25H506.25H481.25H456.25H431.25H406.25H381.25H356.25" stroke="#FF473E" stroke-width="4.17"/>
<path d="M350 281.25C350 282.908 350.658 284.497 351.831 285.669C353.003 286.842 354.592 287.5 356.25 287.5C357.908 287.5 359.497 286.842 360.669 285.669C361.842 284.497 362.5 282.908 362.5 281.25C362.5 279.592 361.842 278.003 360.669 276.831C359.497 275.658 357.908 275 356.25 275C354.592 275 353.003 275.658 351.831 276.831C350.658 278.003 350 279.592 350 281.25ZM475 256.25C475 257.908 475.658 259.497 476.831 260.669C478.003 261.842 479.592 262.5 481.25 262.5C482.908 262.5 484.497 261.842 485.669 260.669C486.842 259.497 487.5 257.908 487.5 256.25C487.5 254.592 486.842 253.003 485.669 251.831C484.497 250.658 482.908 250 481.25 250C479.592 250 478.003 250.658 476.831 251.831C475.658 253.003 475 254.592 475 256.25ZM325 256.25C325 257.908 325.658 259.497 326.831 260.669C328.003 261.842 329.592 262.5 331.25 262.5C332.908 262.5 334.497 261.842 335.669 260.669C336.842 259.497 337.5 257.908 337.5 256.25C337.5 254.592 336.842 253.003 335.669 251.831C334.497 250.658 332.908 250 331.25 250C329.592 250 328.003 250.658 326.831 251.831C325.658 253.003 325 254.592 325 256.25ZM375 256.25C375 257.908 375.658 259.497 376.831 260.669C378.003 261.842 379.592 262.5 381.25 262.5C382.908 262.5 384.497 261.842 385.669 260.669C386.842 259.497 387.5 257.908 387.5 256.25C387.5 254.592 386.842 253.003 385.669 251.831C384.497 250.658 382.908 250 381.25 250C379.592 250 378.003 250.658 376.831 251.831C375.658 253.003 375 254.592 375 256.25Z" fill="#FF473E"/>
<path d="M431.25 56.25L406.25 81.25M481.25 56.25L456.25 81.25M506.25 56.25L481.25 81.25M681.25 81.25H656.25L631.25 56.25H606.25H581.25H556.25H531.25H506.25H481.25H456.25H431.25H406.25" stroke="#FFC727" stroke-width="4.17"/>
<path d="M400 56.25C400 57.9076 400.658 59.4973 401.831 60.6694C403.003 61.8415 404.592 62.5 406.25 62.5C407.908 62.5 409.497 61.8415 410.669 60.6694C411.842 59.4973 412.5 57.9076 412.5 56.25C412.5 54.5924 411.842 53.0027 410.669 51.8306C409.497 50.6585 407.908 50 406.25 50C404.592 50 403.003 50.6585 401.831 51.8306C400.658 53.0027 400 54.5924 400 56.25ZM400 81.25C400 82.9076 400.658 84.4973 401.831 85.6694C403.003 86.8415 404.592 87.5 406.25 87.5C407.908 87.5 409.497 86.8415 410.669 85.6694C411.842 84.4973 412.5 82.9076 412.5 81.25C412.5 79.5924 411.842 78.0027 410.669 76.8306C409.497 75.6585 407.908 75 406.25 75C404.592 75 403.003 75.6585 401.831 76.8306C400.658 78.0027 400 79.5924 400 81.25ZM450 81.25C450 82.9076 450.658 84.4973 451.831 85.6694C453.003 86.8415 454.592 87.5 456.25 87.5C457.908 87.5 459.497 86.8415 460.669 85.6694C461.842 84.4973 462.5 82.9076 462.5 81.25C462.5 79.5924 461.842 78.0027 460.669 76.8306C459.497 75.6585 457.908 75 456.25 75C454.592 75 453.003 75.6585 451.831 76.8306C450.658 78.0027 450 79.5924 450 81.25ZM475 81.25C475 82.9076 475.658 84.4973 476.831 85.6694C478.003 86.8415 479.592 87.5 481.25 87.5C482.908 87.5 484.497 86.8415 485.669 85.6694C486.842 84.4973 487.5 82.9076 487.5 81.25C487.5 79.5924 486.842 78.0027 485.669 76.8306C484.497 75.6585 482.908 75 481.25 75C479.592 75 478.003 75.6585 476.831 76.8306C475.658 78.0027 475 79.5924 475 81.25Z" fill="#FFC727"/>
<path d="M606.25 306.25L581.25 331.25H556.25H531.25M506.25 306.25L481.25 331.25H456.25H431.25M631.25 306.25L606.25 331.25L581.25 356.25M306.25 306.25L281.25 281.25H256.25H231.25H206.25M681.25 281.25H656.25L631.25 306.25H606.25H581.25H556.25H531.25H506.25H481.25H456.25H431.25H406.25H381.25H356.25H331.25H306.25H281.25L256.25 331.25" stroke="#FF473E" stroke-width="4.17"/>
<path d="M250 331.25C250 332.908 250.658 334.497 251.831 335.669C253.003 336.842 254.592 337.5 256.25 337.5C257.908 337.5 259.497 336.842 260.669 335.669C261.842 334.497 262.5 332.908 262.5 331.25C262.5 329.592 261.842 328.003 260.669 326.831C259.497 325.658 257.908 325 256.25 325C254.592 325 253.003 325.658 251.831 326.831C250.658 328.003 250 329.592 250 331.25ZM525 331.25C525 332.908 525.658 334.497 526.831 335.669C528.003 336.842 529.592 337.5 531.25 337.5C532.908 337.5 534.497 336.842 535.669 335.669C536.842 334.497 537.5 332.908 537.5 331.25C537.5 329.592 536.842 328.003 535.669 326.831C534.497 325.658 532.908 325 531.25 325C529.592 325 528.003 325.658 526.831 326.831C525.658 328.003 525 329.592 525 331.25ZM425 331.25C425 332.908 425.658 334.497 426.831 335.669C428.003 336.842 429.592 337.5 431.25 337.5C432.908 337.5 434.497 336.842 435.669 335.669C436.842 334.497 437.5 332.908 437.5 331.25C437.5 329.592 436.842 328.003 435.669 326.831C434.497 325.658 432.908 325 431.25 325C429.592 325 428.003 325.658 426.831 326.831C425.658 328.003 425 329.592 425 331.25ZM575 356.25C575 357.908 575.658 359.497 576.831 360.669C578.003 361.842 579.592 362.5 581.25 362.5C582.908 362.5 584.497 361.842 585.669 360.669C586.842 359.497 587.5 357.908 587.5 356.25C587.5 354.592 586.842 353.003 585.669 351.831C584.497 350.658 582.908 350 581.25 350C579.592 350 578.003 350.658 576.831 351.831C575.658 353.003 575 354.592 575 356.25ZM200 281.25C200 282.908 200.658 284.497 201.831 285.669C203.003 286.842 204.592 287.5 206.25 287.5C207.908 287.5 209.497 286.842 210.669 285.669C211.842 284.497 212.5 282.908 212.5 281.25C212.5 279.592 211.842 278.003 210.669 276.831C209.497 275.658 207.908 275 206.25 275C204.592 275 203.003 275.658 201.831 276.831C200.658 278.003 200 279.592 200 281.25Z" fill="#FF473E"/>
<path d="M631.25 31.25L606.25 6.25H581.25H556.25H531.25M356.25 56.25L331.25 81.25H306.25H281.25M481.25 31.25L456.25 6.25H431.25H406.25M331.25 56.25L306.25 31.25L281.25 6.25H256.25H231.25M681.25 56.25H656.25L631.25 31.25H606.25H581.25H556.25H531.25H506.25H481.25H456.25H431.25H406.25L381.25 56.25H356.25H331.25H306.25H281.25" stroke="#FF473E" stroke-width="4.17"/>
<path d="M275 56.25C275 57.9076 275.658 59.4973 276.831 60.6694C278.003 61.8415 279.592 62.5 281.25 62.5C282.908 62.5 284.497 61.8415 285.669 60.6694C286.842 59.4973 287.5 57.9076 287.5 56.25C287.5 54.5924 286.842 53.0027 285.669 51.8306C284.497 50.6585 282.908 50 281.25 50C279.592 50 278.003 50.6585 276.831 51.8306C275.658 53.0027 275 54.5924 275 56.25ZM525 6.25C525 7.9076 525.658 9.49732 526.831 10.6694C528.003 11.8415 529.592 12.5 531.25 12.5C532.908 12.5 534.497 11.8415 535.669 10.6694C536.842 9.49732 537.5 7.9076 537.5 6.25C537.5 4.5924 536.842 3.00268 535.669 1.83058C534.497 0.658479 532.908 0 531.25 0C529.592 0 528.003 0.658479 526.831 1.83058C525.658 3.00268 525 4.5924 525 6.25ZM275 81.25C275 82.9076 275.658 84.4973 276.831 85.6694C278.003 86.8415 279.592 87.5 281.25 87.5C282.908 87.5 284.497 86.8415 285.669 85.6694C286.842 84.4973 287.5 82.9076 287.5 81.25C287.5 79.5924 286.842 78.0027 285.669 76.8306C284.497 75.6585 282.908 75 281.25 75C279.592 75 278.003 75.6585 276.831 76.8306C275.658 78.0027 275 79.5924 275 81.25ZM400 6.25C400 7.9076 400.658 9.49732 401.831 10.6694C403.003 11.8415 404.592 12.5 406.25 12.5C407.908 12.5 409.497 11.8415 410.669 10.6694C411.842 9.49732 412.5 7.9076 412.5 6.25C412.5 4.5924 411.842 3.00268 410.669 1.83058C409.497 0.658479 407.908 0 406.25 0C404.592 0 403.003 0.658479 401.831 1.83058C400.658 3.00268 400 4.5924 400 6.25ZM225 6.25C225 7.9076 225.658 9.49732 226.831 10.6694C228.003 11.8415 229.592 12.5 231.25 12.5C232.908 12.5 234.497 11.8415 235.669 10.6694C236.842 9.49732 237.5 7.9076 237.5 6.25C237.5 4.5924 236.842 3.00268 235.669 1.83058C234.497 0.658479 232.908 0 231.25 0C229.592 0 228.003 0.658479 226.831 1.83058C225.658 3.00268 225 4.5924 225 6.25Z" fill="#FF473E"/>
</g>
</svg>
