<svg width="480" height="512" viewBox="0 0 480 512" fill="none" xmlns="http://www.w3.org/2000/svg">
<g clip-path="url(#clip0_2461_13548)">
<path d="M240.5 287L482.554 519.5H-1.55411L240.5 287Z" fill="url(#paint0_linear_2461_13548)"/>
<path d="M122.828 218.844H351.441C353.205 218.844 354.896 219.548 356.142 220.8C357.389 222.053 358.09 223.752 358.09 225.524V385.354H116.254V225.524C116.254 223.765 116.944 222.077 118.175 220.827C119.405 219.576 121.077 218.864 122.828 218.844Z" fill="#4D4D4D"/>
<path d="M358.087 385.774H116.251C116.141 385.774 116.036 385.73 115.958 385.651C115.88 385.573 115.836 385.467 115.836 385.356V225.526C115.836 223.65 116.578 221.851 117.898 220.525C119.218 219.198 121.008 218.453 122.875 218.453H351.439C353.306 218.453 355.098 219.198 356.419 220.524C357.74 221.85 358.484 223.649 358.486 225.526V385.356C358.486 385.464 358.445 385.568 358.37 385.646C358.296 385.723 358.195 385.769 358.087 385.774ZM116.634 384.939H357.638V225.526C357.641 224.705 357.482 223.893 357.172 223.134C356.861 222.376 356.405 221.686 355.83 221.104C355.254 220.523 354.57 220.061 353.816 219.745C353.063 219.429 352.255 219.265 351.439 219.263H122.825C122.008 219.264 121.199 219.427 120.445 219.743C119.691 220.058 119.006 220.52 118.429 221.101C117.852 221.683 117.396 222.373 117.085 223.132C116.774 223.891 116.615 224.705 116.617 225.526L116.634 384.939Z" fill="#4D4D4D"/>
<path d="M343.41 232.031H130.844V372.18H343.41V232.031Z" fill="#F69D80"/>
<path d="M343.42 372.589H130.845C130.735 372.589 130.629 372.545 130.551 372.467C130.473 372.388 130.43 372.282 130.43 372.171V232.031C130.43 231.92 130.473 231.814 130.551 231.736C130.629 231.657 130.735 231.613 130.845 231.613H343.42C343.53 231.613 343.636 231.657 343.714 231.736C343.791 231.814 343.835 231.92 343.835 232.031V372.171C343.835 372.282 343.791 372.388 343.714 372.467C343.636 372.545 343.53 372.589 343.42 372.589ZM131.261 371.754H343.004V232.448H131.261V371.754Z" fill="#4D4D4D"/>
<path d="M161.625 392.759L164.684 383.574H152.342L148.844 392.759H161.625Z" fill="#4D4D4D"/>
<path d="M161.621 393.176H148.84C148.773 393.176 148.707 393.158 148.648 393.126C148.589 393.095 148.539 393.049 148.501 392.993C148.463 392.937 148.44 392.873 148.432 392.806C148.425 392.739 148.433 392.671 148.458 392.609L151.948 383.423C151.978 383.346 152.03 383.279 152.098 383.231C152.166 383.183 152.247 383.157 152.33 383.156H164.68C164.745 383.157 164.81 383.173 164.868 383.203C164.927 383.234 164.977 383.278 165.015 383.332C165.053 383.385 165.078 383.447 165.088 383.513C165.097 383.578 165.091 383.645 165.07 383.707L162.02 392.893C161.992 392.976 161.938 393.049 161.867 393.1C161.795 393.151 161.709 393.178 161.621 393.176ZM149.447 392.341H161.322L164.098 383.991H152.621L149.447 392.341Z" fill="white"/>
<path d="M152.342 383.574H140.948L137.051 392.759H148.843L152.342 383.574Z" fill="#4D4D4D"/>
<path d="M148.839 393.177H137.063C136.993 393.177 136.925 393.159 136.864 393.125C136.803 393.092 136.751 393.043 136.714 392.985C136.681 392.924 136.664 392.857 136.664 392.788C136.664 392.72 136.681 392.652 136.714 392.592L140.612 383.407C140.642 383.331 140.695 383.266 140.764 383.221C140.832 383.177 140.912 383.154 140.994 383.156H152.379C152.448 383.156 152.516 383.173 152.576 383.205C152.637 383.237 152.689 383.283 152.728 383.34C152.766 383.396 152.789 383.46 152.796 383.527C152.803 383.594 152.794 383.662 152.77 383.724L149.279 392.909C149.247 392.997 149.185 393.071 149.105 393.12C149.025 393.168 148.932 393.188 148.839 393.177ZM137.678 392.342H148.556L151.731 383.991H141.218L137.678 392.342Z" fill="white"/>
<path d="M263.86 392.759L263.419 383.574H251.078L251.086 392.759H263.86Z" fill="#4D4D4D"/>
<path d="M263.869 393.176H251.087C250.977 393.176 250.872 393.133 250.794 393.054C250.716 392.976 250.672 392.87 250.672 392.759V383.574C250.671 383.465 250.713 383.36 250.788 383.282C250.827 383.241 250.873 383.209 250.925 383.188C250.976 383.166 251.032 383.155 251.087 383.156H263.387C263.494 383.156 263.598 383.198 263.675 383.273C263.753 383.347 263.798 383.449 263.802 383.557L264.243 392.742C264.247 392.798 264.239 392.855 264.22 392.908C264.202 392.961 264.173 393.01 264.135 393.051C264.064 393.123 263.969 393.167 263.869 393.176ZM251.503 392.341H263.429L263.021 383.991H251.495L251.503 392.341Z" fill="white"/>
<path d="M174.407 392.759L177.024 383.574H164.683L161.625 392.759H174.407Z" fill="#4D4D4D"/>
<path d="M174.405 393.176H161.623C161.558 393.176 161.493 393.16 161.435 393.129C161.376 393.099 161.326 393.055 161.288 393.001C161.25 392.947 161.225 392.885 161.215 392.82C161.206 392.755 161.212 392.688 161.233 392.625L164.283 383.44C164.312 383.357 164.366 383.285 164.437 383.235C164.509 383.184 164.594 383.156 164.682 383.156H177.023C177.087 383.157 177.151 383.172 177.208 383.201C177.266 383.23 177.316 383.272 177.355 383.323C177.392 383.376 177.417 383.436 177.429 383.5C177.44 383.563 177.438 383.628 177.422 383.691L174.804 392.876C174.779 392.963 174.726 393.039 174.654 393.093C174.582 393.147 174.495 393.176 174.405 393.176ZM162.205 392.341H174.089L176.466 383.991H164.981L162.205 392.341Z" fill="white"/>
<path d="M364.626 392.759L360.736 383.574H349.816L353.323 392.759H364.626Z" fill="#4D4D4D"/>
<path d="M364.632 393.176H353.322C353.238 393.177 353.157 393.151 353.089 393.103C353.02 393.055 352.968 392.988 352.939 392.909L349.424 383.724C349.401 383.661 349.393 383.593 349.402 383.526C349.411 383.459 349.435 383.395 349.474 383.34C349.511 383.283 349.562 383.237 349.621 383.205C349.681 383.173 349.747 383.156 349.815 383.156H360.735C360.815 383.157 360.894 383.181 360.962 383.225C361.03 383.27 361.084 383.333 361.117 383.407L365.015 392.592C365.041 392.656 365.051 392.725 365.044 392.794C365.037 392.862 365.012 392.928 364.973 392.984C364.936 393.042 364.886 393.09 364.826 393.123C364.767 393.157 364.7 393.175 364.632 393.176ZM353.613 392.341H364.001L360.46 383.991H350.421L353.613 392.341Z" fill="white"/>
<path d="M353.325 392.759L349.818 383.574H337.477L340.543 392.759H353.325Z" fill="#4D4D4D"/>
<path d="M353.321 393.176H340.539C340.453 393.175 340.37 393.146 340.3 393.096C340.23 393.045 340.177 392.974 340.149 392.893L337.074 383.707C337.055 383.644 337.05 383.578 337.06 383.513C337.07 383.448 337.095 383.386 337.132 383.332C337.172 383.278 337.223 383.234 337.282 383.204C337.341 383.174 337.406 383.157 337.473 383.156H349.814C349.898 383.157 349.98 383.183 350.05 383.23C350.119 383.278 350.173 383.345 350.204 383.423L353.711 392.609C353.734 392.672 353.741 392.74 353.732 392.807C353.723 392.874 353.699 392.937 353.661 392.993C353.622 393.048 353.572 393.094 353.513 393.126C353.454 393.158 353.388 393.175 353.321 393.176ZM340.855 392.341H352.731L349.548 383.991H338.046L340.855 392.341Z" fill="white"/>
<path d="M340.541 392.759L337.474 383.574H325.133L327.759 392.759H340.541Z" fill="#4D4D4D"/>
<path d="M340.541 393.177H327.759C327.669 393.175 327.581 393.144 327.509 393.088C327.437 393.033 327.385 392.956 327.36 392.868L324.734 383.683C324.714 383.621 324.71 383.555 324.721 383.491C324.733 383.427 324.76 383.366 324.801 383.315C324.84 383.264 324.89 383.222 324.948 383.193C325.005 383.164 325.069 383.149 325.133 383.148H337.474C337.56 383.15 337.644 383.178 337.714 383.229C337.783 383.28 337.836 383.351 337.865 383.432L340.94 392.618C340.959 392.68 340.964 392.747 340.954 392.812C340.944 392.877 340.919 392.939 340.881 392.993C340.843 393.049 340.792 393.094 340.733 393.126C340.674 393.158 340.608 393.176 340.541 393.177ZM328.075 392.342H339.967L337.175 383.992H325.715L328.075 392.342Z" fill="white"/>
<path d="M225.524 392.759L226.388 383.574H214.047L212.742 392.759H225.524Z" fill="#4D4D4D"/>
<path d="M225.525 393.176H212.744C212.685 393.175 212.627 393.161 212.573 393.135C212.52 393.109 212.474 393.072 212.436 393.026C212.396 392.983 212.367 392.931 212.349 392.875C212.332 392.818 212.328 392.759 212.336 392.701L213.641 383.515C213.653 383.416 213.702 383.324 213.777 383.258C213.852 383.192 213.949 383.156 214.048 383.156H226.39C226.447 383.156 226.504 383.168 226.557 383.191C226.61 383.214 226.657 383.248 226.697 383.29C226.738 383.333 226.769 383.384 226.787 383.44C226.806 383.497 226.812 383.557 226.805 383.616L225.974 392.801C225.963 392.91 225.91 393.011 225.826 393.081C225.742 393.152 225.634 393.186 225.525 393.176ZM213.226 392.341H225.16L225.941 383.991H214.414L213.226 392.341Z" fill="white"/>
<path d="M327.76 392.759L325.134 383.574H312.793L314.987 392.759H327.76Z" fill="#4D4D4D"/>
<path d="M327.758 393.177H314.984C314.89 393.177 314.798 393.145 314.724 393.086C314.65 393.027 314.598 392.944 314.577 392.851L312.383 383.666C312.368 383.604 312.367 383.54 312.38 383.478C312.393 383.416 312.42 383.358 312.458 383.307C312.498 383.257 312.549 383.217 312.606 383.19C312.664 383.162 312.727 383.148 312.79 383.148H325.131C325.221 383.148 325.309 383.178 325.381 383.232C325.453 383.286 325.505 383.362 325.53 383.449L328.165 392.634C328.181 392.697 328.183 392.763 328.171 392.826C328.158 392.89 328.131 392.95 328.091 393.002C328.052 393.053 328.002 393.095 327.944 393.124C327.886 393.153 327.822 393.168 327.758 393.169V393.177ZM315.292 392.342H327.209L324.816 383.992H313.314L315.292 392.342Z" fill="white"/>
<path d="M212.742 392.759L214.047 383.574H201.706L199.969 392.759H212.742Z" fill="#4D4D4D"/>
<path d="M212.744 393.177H199.971C199.909 393.176 199.847 393.161 199.791 393.134C199.735 393.107 199.686 393.067 199.647 393.018C199.609 392.97 199.582 392.915 199.566 392.857C199.55 392.798 199.547 392.736 199.555 392.676L201.3 383.491C201.316 383.394 201.366 383.307 201.441 383.244C201.516 383.181 201.61 383.147 201.708 383.149H214.049C214.109 383.147 214.168 383.16 214.222 383.184C214.277 383.209 214.326 383.245 214.365 383.29C214.405 383.335 214.434 383.389 214.452 383.446C214.469 383.504 214.473 383.565 214.464 383.624L213.16 392.81C213.146 392.911 213.096 393.003 213.02 393.071C212.943 393.138 212.846 393.176 212.744 393.177ZM200.469 392.342H212.387L213.575 383.992H202.048L200.469 392.342Z" fill="white"/>
<path d="M251.086 392.759L251.078 383.574H238.737L238.305 392.759H251.086Z" fill="#4D4D4D"/>
<path d="M251.085 393.177H238.303C238.247 393.177 238.191 393.165 238.139 393.142C238.088 393.119 238.042 393.086 238.004 393.043C237.964 393.003 237.932 392.955 237.912 392.902C237.892 392.848 237.884 392.791 237.888 392.734L238.32 383.549C238.324 383.441 238.37 383.339 238.447 383.265C238.525 383.19 238.628 383.148 238.735 383.148H251.077C251.187 383.148 251.292 383.192 251.37 383.271C251.448 383.349 251.492 383.455 251.492 383.566V392.751C251.49 392.861 251.445 392.966 251.368 393.044C251.291 393.122 251.186 393.166 251.077 393.169L251.085 393.177ZM238.735 392.342H250.669V383.992H239.126L238.735 392.342Z" fill="white"/>
<path d="M199.969 392.759L201.706 383.574H189.365L187.188 392.759H199.969Z" fill="#4D4D4D"/>
<path d="M199.968 393.176H187.187C187.123 393.177 187.06 393.163 187.003 393.135C186.945 393.108 186.894 393.068 186.854 393.018C186.818 392.967 186.792 392.908 186.779 392.846C186.766 392.784 186.766 392.721 186.78 392.659L188.957 383.474C188.981 383.383 189.033 383.303 189.107 383.246C189.181 383.188 189.271 383.157 189.364 383.156H201.705C201.767 383.157 201.827 383.171 201.883 383.197C201.939 383.223 201.989 383.26 202.029 383.307C202.067 383.354 202.094 383.41 202.108 383.469C202.122 383.528 202.124 383.589 202.113 383.649L200.376 392.834C200.358 392.93 200.308 393.017 200.234 393.079C200.159 393.142 200.065 393.176 199.968 393.176ZM187.71 392.341H199.619L201.207 383.991H189.688L187.71 392.341Z" fill="white"/>
<path d="M187.184 392.759L189.361 383.574H177.02L174.402 392.759H187.184Z" fill="#4D4D4D"/>
<path d="M187.187 393.176H174.405C174.341 393.176 174.278 393.16 174.22 393.132C174.162 393.103 174.112 393.061 174.073 393.009C174.036 392.957 174.011 392.897 173.999 392.833C173.988 392.77 173.99 392.704 174.007 392.642L176.624 383.457C176.649 383.37 176.702 383.294 176.774 383.24C176.846 383.186 176.933 383.156 177.023 383.156H189.364C189.427 383.156 189.489 383.17 189.545 383.198C189.601 383.225 189.65 383.265 189.688 383.315C189.728 383.365 189.756 383.423 189.771 383.485C189.785 383.547 189.785 383.612 189.772 383.674L187.586 392.859C187.565 392.95 187.514 393.03 187.442 393.088C187.369 393.146 187.279 393.177 187.187 393.176ZM174.954 392.341H186.855L188.841 383.991H177.331L174.954 392.341Z" fill="white"/>
<path d="M238.305 392.759L238.737 383.574H226.388L225.523 392.759H238.305Z" fill="#4D4D4D"/>
<path d="M238.304 393.176H225.522C225.464 393.176 225.406 393.163 225.353 393.138C225.3 393.114 225.253 393.079 225.214 393.035C225.176 392.991 225.147 392.941 225.129 392.887C225.11 392.832 225.103 392.775 225.106 392.717L225.979 383.532C225.989 383.43 226.036 383.335 226.111 383.266C226.187 383.197 226.284 383.158 226.386 383.156H238.736C238.849 383.16 238.956 383.208 239.035 383.29C239.111 383.371 239.152 383.479 239.151 383.59L238.719 392.776C238.715 392.883 238.669 392.985 238.592 393.06C238.514 393.135 238.411 393.177 238.304 393.176ZM225.979 392.341H237.905L238.295 383.991H226.769L225.979 392.341Z" fill="white"/>
<path d="M314.985 392.759L312.791 383.574H300.441L302.203 392.759H314.985Z" fill="#4D4D4D"/>
<path d="M314.985 393.177H302.203C302.106 393.178 302.011 393.144 301.936 393.082C301.862 393.019 301.812 392.931 301.796 392.835L300.034 383.649C300.023 383.589 300.026 383.527 300.041 383.467C300.056 383.408 300.084 383.352 300.123 383.305C300.162 383.257 300.21 383.219 300.265 383.192C300.32 383.165 300.38 383.15 300.441 383.148H312.791C312.883 383.148 312.973 383.179 313.045 383.237C313.118 383.294 313.169 383.375 313.19 383.466L315.384 392.651C315.399 392.712 315.4 392.776 315.387 392.837C315.374 392.899 315.347 392.957 315.309 393.007C315.27 393.057 315.221 393.097 315.165 393.125C315.109 393.153 315.047 393.168 314.985 393.169V393.177ZM302.519 392.342H314.428L312.433 383.992H300.948L302.519 392.342Z" fill="white"/>
<path d="M302.204 392.759L300.443 383.574H288.102L289.423 392.759H302.204Z" fill="#4D4D4D"/>
<path d="M302.206 393.176H289.424C289.325 393.175 289.229 393.139 289.154 393.073C289.08 393.007 289.031 392.916 289.017 392.817L287.696 383.632C287.687 383.573 287.691 383.513 287.707 383.456C287.723 383.398 287.75 383.345 287.787 383.298C287.827 383.254 287.876 383.219 287.93 383.194C287.985 383.17 288.043 383.157 288.103 383.156H300.444C300.542 383.156 300.637 383.19 300.713 383.253C300.788 383.315 300.84 383.402 300.86 383.499L302.613 392.684C302.626 392.744 302.624 392.806 302.608 392.866C302.592 392.925 302.563 392.98 302.522 393.026C302.484 393.074 302.436 393.113 302.381 393.139C302.327 393.165 302.267 393.178 302.206 393.176ZM289.782 392.341H301.699L300.103 383.991H288.585L289.782 392.341Z" fill="white"/>
<path d="M276.64 392.759L275.759 383.574H263.418L263.858 392.759H276.64Z" fill="#4D4D4D"/>
<path d="M276.684 393.177H263.869C263.762 393.177 263.659 393.135 263.581 393.061C263.504 392.986 263.458 392.884 263.454 392.776L263.005 383.591C263.001 383.534 263.009 383.477 263.029 383.423C263.049 383.37 263.081 383.322 263.122 383.282C263.159 383.24 263.205 383.206 263.257 383.183C263.308 383.16 263.364 383.148 263.421 383.148H275.762C275.865 383.15 275.964 383.189 276.04 383.258C276.116 383.327 276.165 383.422 276.177 383.524L277.058 392.709C277.063 392.767 277.056 392.826 277.037 392.881C277.018 392.936 276.988 392.986 276.949 393.029C276.91 393.072 276.863 393.107 276.81 393.131C276.758 393.155 276.701 393.168 276.643 393.169L276.684 393.177ZM264.302 392.342H276.186L275.355 383.992H263.853L264.302 392.342Z" fill="white"/>
<path d="M289.42 392.759L288.099 383.574H275.758L276.639 392.759H289.42Z" fill="#4D4D4D"/>
<path d="M289.42 393.177H276.68C276.577 393.175 276.478 393.135 276.403 393.064C276.328 392.993 276.281 392.896 276.273 392.793L275.384 383.608C275.38 383.55 275.388 383.493 275.406 383.438C275.425 383.384 275.454 383.333 275.492 383.29C275.53 383.246 275.577 383.21 275.63 383.185C275.683 383.161 275.741 383.148 275.799 383.148H288.14C288.241 383.149 288.338 383.186 288.414 383.251C288.49 383.317 288.54 383.408 288.556 383.507L289.877 392.693C289.885 392.752 289.879 392.813 289.862 392.87C289.845 392.928 289.816 392.981 289.778 393.027C289.734 393.078 289.679 393.119 289.617 393.145C289.555 393.171 289.487 393.182 289.42 393.177ZM277.021 392.342H288.938L287.741 383.992H276.215L277.021 392.342Z" fill="white"/>
<path d="M158.264 244.333H144.551C144.221 244.333 143.904 244.201 143.67 243.966C143.436 243.731 143.305 243.413 143.305 243.081C143.305 242.748 143.436 242.43 143.67 242.195C143.904 241.96 144.221 241.828 144.551 241.828H158.264C158.594 241.828 158.911 241.96 159.145 242.195C159.379 242.43 159.51 242.748 159.51 243.081C159.51 243.413 159.379 243.731 159.145 243.966C158.911 244.201 158.594 244.333 158.264 244.333Z" fill="#4D4D4D"/>
<path d="M196.033 251.411H144.508C144.178 251.411 143.861 251.279 143.627 251.044C143.393 250.81 143.262 250.491 143.262 250.159C143.262 249.827 143.393 249.508 143.627 249.273C143.861 249.038 144.178 248.906 144.508 248.906H196.033C196.364 248.906 196.681 249.038 196.915 249.273C197.149 249.508 197.28 249.827 197.28 250.159C197.28 250.491 197.149 250.81 196.915 251.044C196.681 251.279 196.364 251.411 196.033 251.411Z" fill="white"/>
<path d="M275.672 251.411H224.188C223.857 251.411 223.54 251.279 223.307 251.044C223.073 250.81 222.941 250.491 222.941 250.159C222.941 249.827 223.073 249.508 223.307 249.273C223.54 249.038 223.857 248.906 224.188 248.906H275.672C276.002 248.906 276.319 249.038 276.553 249.273C276.787 249.508 276.918 249.827 276.918 250.159C276.918 250.491 276.787 250.81 276.553 251.044C276.319 251.279 276.002 251.411 275.672 251.411Z" fill="white"/>
<path d="M219.742 251.411H199.356C199.025 251.411 198.708 251.279 198.474 251.044C198.241 250.81 198.109 250.491 198.109 250.159C198.109 249.827 198.241 249.508 198.474 249.273C198.708 249.038 199.025 248.906 199.356 248.906H219.725C220.056 248.906 220.373 249.038 220.606 249.273C220.84 249.508 220.972 249.827 220.972 250.159C220.972 250.491 220.84 250.81 220.606 251.044C220.373 251.279 220.056 251.411 219.725 251.411H219.742Z" fill="#4D4D4D"/>
<path d="M174.187 258.474H144.551C144.221 258.474 143.904 258.342 143.67 258.107C143.436 257.872 143.305 257.553 143.305 257.221C143.305 256.889 143.436 256.57 143.67 256.336C143.904 256.101 144.221 255.969 144.551 255.969H174.187C174.517 255.969 174.834 256.101 175.068 256.336C175.302 256.57 175.433 256.889 175.433 257.221C175.433 257.553 175.302 257.872 175.068 258.107C174.834 258.342 174.517 258.474 174.187 258.474Z" fill="#4D4D4D"/>
<path d="M207.518 258.474H177.891C177.56 258.474 177.243 258.342 177.01 258.107C176.776 257.872 176.645 257.553 176.645 257.221C176.645 256.889 176.776 256.57 177.01 256.336C177.243 256.101 177.56 255.969 177.891 255.969H207.518C207.849 255.969 208.166 256.101 208.4 256.336C208.633 256.57 208.765 256.889 208.765 257.221C208.765 257.553 208.633 257.872 208.4 258.107C208.166 258.342 207.849 258.474 207.518 258.474Z" fill="#4D4D4D"/>
<path d="M240.854 258.474H211.227C210.896 258.474 210.579 258.342 210.346 258.107C210.112 257.872 209.98 257.553 209.98 257.221C209.98 256.889 210.112 256.57 210.346 256.336C210.579 256.101 210.896 255.969 211.227 255.969H240.854C241.185 255.969 241.502 256.101 241.735 256.336C241.969 256.57 242.101 256.889 242.101 257.221C242.101 257.553 241.969 257.872 241.735 258.107C241.502 258.342 241.185 258.474 240.854 258.474Z" fill="#4D4D4D"/>
<path d="M257.146 258.474H244.555C244.225 258.474 243.907 258.342 243.674 258.107C243.44 257.872 243.309 257.553 243.309 257.221C243.309 256.889 243.44 256.57 243.674 256.336C243.907 256.101 244.225 255.969 244.555 255.969H257.146C257.476 255.969 257.793 256.101 258.027 256.336C258.261 256.57 258.392 256.889 258.392 257.221C258.392 257.553 258.261 257.872 258.027 258.107C257.793 258.342 257.476 258.474 257.146 258.474Z" fill="#4D4D4D"/>
<path d="M175.665 244.333H161.961C161.631 244.333 161.314 244.201 161.08 243.966C160.846 243.731 160.715 243.413 160.715 243.081C160.715 242.748 160.846 242.43 161.08 242.195C161.314 241.96 161.631 241.828 161.961 241.828H175.665C175.996 241.828 176.313 241.96 176.547 242.195C176.781 242.43 176.912 242.748 176.912 243.081C176.912 243.413 176.781 243.731 176.547 243.966C176.313 244.201 175.996 244.333 175.665 244.333Z" fill="#4D4D4D"/>
<path d="M257.146 244.333H243.442C243.111 244.333 242.794 244.201 242.56 243.966C242.327 243.731 242.195 243.413 242.195 243.081C242.195 242.748 242.327 242.43 242.56 242.195C242.794 241.96 243.111 241.828 243.442 241.828H257.146C257.477 241.828 257.794 241.96 258.027 242.195C258.261 242.43 258.393 242.748 258.393 243.081C258.393 243.413 258.261 243.731 258.027 243.966C257.794 244.201 257.477 244.333 257.146 244.333Z" fill="#4D4D4D"/>
<path d="M238.997 244.333H225.293C224.963 244.333 224.646 244.201 224.412 243.966C224.178 243.731 224.047 243.413 224.047 243.081C224.047 242.748 224.178 242.43 224.412 242.195C224.646 241.96 224.963 241.828 225.293 241.828H238.997C239.328 241.828 239.645 241.96 239.879 242.195C240.113 242.43 240.244 242.748 240.244 243.081C240.244 243.413 240.113 243.731 239.879 243.966C239.645 244.201 239.328 244.333 238.997 244.333Z" fill="white"/>
<path d="M219.368 244.333H179.411C179.08 244.333 178.763 244.201 178.529 243.966C178.295 243.731 178.164 243.413 178.164 243.081C178.164 242.748 178.295 242.43 178.529 242.195C178.763 241.96 179.08 241.828 179.411 241.828H219.409C219.74 241.828 220.057 241.96 220.291 242.195C220.524 242.43 220.656 242.748 220.656 243.081C220.656 243.413 220.524 243.731 220.291 243.966C220.057 244.201 219.74 244.333 219.409 244.333H219.368Z" fill="#4D4D4D"/>
<path d="M158.264 287.501H144.551C144.221 287.501 143.904 287.369 143.67 287.134C143.436 286.899 143.305 286.581 143.305 286.249C143.305 285.916 143.436 285.598 143.67 285.363C143.904 285.128 144.221 284.996 144.551 284.996H158.264C158.594 284.996 158.911 285.128 159.145 285.363C159.379 285.598 159.51 285.916 159.51 286.249C159.51 286.581 159.379 286.899 159.145 287.134C158.911 287.369 158.594 287.501 158.264 287.501Z" fill="#4D4D4D"/>
<path d="M196.033 294.575H144.508C144.178 294.575 143.861 294.443 143.627 294.208C143.393 293.974 143.262 293.655 143.262 293.323C143.262 292.991 143.393 292.672 143.627 292.437C143.861 292.202 144.178 292.07 144.508 292.07H196.033C196.364 292.07 196.681 292.202 196.915 292.437C197.149 292.672 197.28 292.991 197.28 293.323C197.28 293.655 197.149 293.974 196.915 294.208C196.681 294.443 196.364 294.575 196.033 294.575Z" fill="white"/>
<path d="M275.672 294.575H224.188C223.857 294.575 223.54 294.443 223.307 294.208C223.073 293.974 222.941 293.655 222.941 293.323C222.941 292.991 223.073 292.672 223.307 292.437C223.54 292.202 223.857 292.07 224.188 292.07H275.672C276.002 292.07 276.319 292.202 276.553 292.437C276.787 292.672 276.918 292.991 276.918 293.323C276.918 293.655 276.787 293.974 276.553 294.208C276.319 294.443 276.002 294.575 275.672 294.575Z" fill="#4D4D4D"/>
<path d="M219.742 294.575H199.356C199.025 294.575 198.708 294.443 198.474 294.208C198.241 293.974 198.109 293.655 198.109 293.323C198.109 292.991 198.241 292.672 198.474 292.437C198.708 292.202 199.025 292.07 199.356 292.07H219.725C220.056 292.07 220.373 292.202 220.606 292.437C220.84 292.672 220.972 292.991 220.972 293.323C220.972 293.655 220.84 293.974 220.606 294.208C220.373 294.443 220.056 294.575 219.725 294.575H219.742Z" fill="#4D4D4D"/>
<path d="M174.187 301.646H144.551C144.221 301.646 143.904 301.514 143.67 301.279C143.436 301.044 143.305 300.725 143.305 300.393C143.305 300.061 143.436 299.742 143.67 299.507C143.904 299.273 144.221 299.141 144.551 299.141H174.187C174.517 299.141 174.834 299.273 175.068 299.507C175.302 299.742 175.433 300.061 175.433 300.393C175.433 300.725 175.302 301.044 175.068 301.279C174.834 301.514 174.517 301.646 174.187 301.646Z" fill="#4D4D4D"/>
<path d="M207.518 301.646H177.891C177.56 301.646 177.243 301.514 177.01 301.279C176.776 301.044 176.645 300.725 176.645 300.393C176.645 300.061 176.776 299.742 177.01 299.507C177.243 299.273 177.56 299.141 177.891 299.141H207.518C207.849 299.141 208.166 299.273 208.4 299.507C208.633 299.742 208.765 300.061 208.765 300.393C208.765 300.725 208.633 301.044 208.4 301.279C208.166 301.514 207.849 301.646 207.518 301.646Z" fill="#4D4D4D"/>
<path d="M240.854 301.646H211.227C210.896 301.646 210.579 301.514 210.346 301.279C210.112 301.044 209.98 300.725 209.98 300.393C209.98 300.061 210.112 299.742 210.346 299.507C210.579 299.273 210.896 299.141 211.227 299.141H240.854C241.185 299.141 241.502 299.273 241.735 299.507C241.969 299.742 242.101 300.061 242.101 300.393C242.101 300.725 241.969 301.044 241.735 301.279C241.502 301.514 241.185 301.646 240.854 301.646Z" fill="white"/>
<path d="M257.146 301.646H244.555C244.225 301.646 243.907 301.514 243.674 301.279C243.44 301.044 243.309 300.725 243.309 300.393C243.309 300.061 243.44 299.742 243.674 299.507C243.907 299.273 244.225 299.141 244.555 299.141H257.146C257.476 299.141 257.793 299.273 258.027 299.507C258.261 299.742 258.392 300.061 258.392 300.393C258.392 300.725 258.261 301.044 258.027 301.279C257.793 301.514 257.476 301.646 257.146 301.646Z" fill="#4D4D4D"/>
<path d="M175.665 287.501H161.961C161.631 287.501 161.314 287.369 161.08 287.134C160.846 286.899 160.715 286.581 160.715 286.249C160.715 285.916 160.846 285.598 161.08 285.363C161.314 285.128 161.631 284.996 161.961 284.996H175.665C175.996 284.996 176.313 285.128 176.547 285.363C176.781 285.598 176.912 285.916 176.912 286.249C176.912 286.581 176.781 286.899 176.547 287.134C176.313 287.369 175.996 287.501 175.665 287.501Z" fill="#4D4D4D"/>
<path d="M257.146 287.501H243.442C243.111 287.501 242.794 287.369 242.56 287.134C242.327 286.899 242.195 286.581 242.195 286.249C242.195 285.916 242.327 285.598 242.56 285.363C242.794 285.128 243.111 284.996 243.442 284.996H257.146C257.477 284.996 257.794 285.128 258.027 285.363C258.261 285.598 258.393 285.916 258.393 286.249C258.393 286.581 258.261 286.899 258.027 287.134C257.794 287.369 257.477 287.501 257.146 287.501Z" fill="#4D4D4D"/>
<path d="M238.997 287.501H225.293C224.963 287.501 224.646 287.369 224.412 287.134C224.178 286.899 224.047 286.581 224.047 286.249C224.047 285.916 224.178 285.598 224.412 285.363C224.646 285.128 224.963 284.996 225.293 284.996H238.997C239.328 284.996 239.645 285.128 239.879 285.363C240.113 285.598 240.244 285.916 240.244 286.249C240.244 286.581 240.113 286.899 239.879 287.134C239.645 287.369 239.328 287.501 238.997 287.501Z" fill="white"/>
<path d="M219.368 287.501H179.411C179.08 287.501 178.763 287.369 178.529 287.134C178.295 286.899 178.164 286.581 178.164 286.249C178.164 285.916 178.295 285.598 178.529 285.363C178.763 285.128 179.08 284.996 179.411 284.996H219.409C219.74 284.996 220.057 285.128 220.291 285.363C220.524 285.598 220.656 285.916 220.656 286.249C220.656 286.581 220.524 286.899 220.291 287.134C220.057 287.369 219.74 287.501 219.409 287.501H219.368Z" fill="#4D4D4D"/>
<path d="M158.264 351.138H144.551C144.221 351.138 143.904 351.006 143.67 350.771C143.436 350.536 143.305 350.218 143.305 349.885C143.305 349.553 143.436 349.235 143.67 349C143.904 348.765 144.221 348.633 144.551 348.633H158.264C158.594 348.633 158.911 348.765 159.145 349C159.379 349.235 159.51 349.553 159.51 349.885C159.51 350.218 159.379 350.536 159.145 350.771C158.911 351.006 158.594 351.138 158.264 351.138Z" fill="#4D4D4D"/>
<path d="M196.033 358.212H144.508C144.178 358.212 143.861 358.08 143.627 357.845C143.393 357.61 143.262 357.292 143.262 356.96C143.262 356.627 143.393 356.309 143.627 356.074C143.861 355.839 144.178 355.707 144.508 355.707H196.033C196.364 355.707 196.681 355.839 196.915 356.074C197.149 356.309 197.28 356.627 197.28 356.96C197.28 357.292 197.149 357.61 196.915 357.845C196.681 358.08 196.364 358.212 196.033 358.212Z" fill="white"/>
<path d="M275.672 358.212H224.188C223.857 358.212 223.54 358.08 223.307 357.845C223.073 357.61 222.941 357.292 222.941 356.96C222.941 356.627 223.073 356.309 223.307 356.074C223.54 355.839 223.857 355.707 224.188 355.707H275.672C276.002 355.707 276.319 355.839 276.553 356.074C276.787 356.309 276.918 356.627 276.918 356.96C276.918 357.292 276.787 357.61 276.553 357.845C276.319 358.08 276.002 358.212 275.672 358.212Z" fill="#4D4D4D"/>
<path d="M219.742 358.212H199.356C199.025 358.212 198.708 358.08 198.474 357.845C198.241 357.61 198.109 357.292 198.109 356.96C198.109 356.627 198.241 356.309 198.474 356.074C198.708 355.839 199.025 355.707 199.356 355.707H219.725C220.056 355.707 220.373 355.839 220.606 356.074C220.84 356.309 220.972 356.627 220.972 356.96C220.972 357.292 220.84 357.61 220.606 357.845C220.373 358.08 220.056 358.212 219.725 358.212H219.742Z" fill="#4D4D4D"/>
<path d="M174.187 365.282H144.551C144.221 365.282 143.904 365.15 143.67 364.916C143.436 364.681 143.305 364.362 143.305 364.03C143.305 363.698 143.436 363.379 143.67 363.144C143.904 362.909 144.221 362.777 144.551 362.777H174.187C174.517 362.777 174.834 362.909 175.068 363.144C175.302 363.379 175.433 363.698 175.433 364.03C175.433 364.362 175.302 364.681 175.068 364.916C174.834 365.15 174.517 365.282 174.187 365.282Z" fill="#4D4D4D"/>
<path d="M207.518 365.282H177.891C177.56 365.282 177.243 365.15 177.01 364.916C176.776 364.681 176.645 364.362 176.645 364.03C176.645 363.698 176.776 363.379 177.01 363.144C177.243 362.909 177.56 362.777 177.891 362.777H207.518C207.849 362.777 208.166 362.909 208.4 363.144C208.633 363.379 208.765 363.698 208.765 364.03C208.765 364.362 208.633 364.681 208.4 364.916C208.166 365.15 207.849 365.282 207.518 365.282Z" fill="#4D4D4D"/>
<path d="M240.854 365.282H211.227C210.896 365.282 210.579 365.15 210.346 364.916C210.112 364.681 209.98 364.362 209.98 364.03C209.98 363.698 210.112 363.379 210.346 363.144C210.579 362.909 210.896 362.777 211.227 362.777H240.854C241.185 362.777 241.502 362.909 241.735 363.144C241.969 363.379 242.101 363.698 242.101 364.03C242.101 364.362 241.969 364.681 241.735 364.916C241.502 365.15 241.185 365.282 240.854 365.282Z" fill="white"/>
<path d="M257.146 365.282H244.555C244.225 365.282 243.907 365.15 243.674 364.916C243.44 364.681 243.309 364.362 243.309 364.03C243.309 363.698 243.44 363.379 243.674 363.144C243.907 362.909 244.225 362.777 244.555 362.777H257.146C257.476 362.777 257.793 362.909 258.027 363.144C258.261 363.379 258.392 363.698 258.392 364.03C258.392 364.362 258.261 364.681 258.027 364.916C257.793 365.15 257.476 365.282 257.146 365.282Z" fill="#4D4D4D"/>
<path d="M175.665 351.138H161.961C161.631 351.138 161.314 351.006 161.08 350.771C160.846 350.536 160.715 350.218 160.715 349.885C160.715 349.553 160.846 349.235 161.08 349C161.314 348.765 161.631 348.633 161.961 348.633H175.665C175.996 348.633 176.313 348.765 176.547 349C176.781 349.235 176.912 349.553 176.912 349.885C176.912 350.218 176.781 350.536 176.547 350.771C176.313 351.006 175.996 351.138 175.665 351.138Z" fill="#4D4D4D"/>
<path d="M257.146 351.138H243.442C243.111 351.138 242.794 351.006 242.56 350.771C242.327 350.536 242.195 350.218 242.195 349.885C242.195 349.553 242.327 349.235 242.56 349C242.794 348.765 243.111 348.633 243.442 348.633H257.146C257.477 348.633 257.794 348.765 258.027 349C258.261 349.235 258.393 349.553 258.393 349.885C258.393 350.218 258.261 350.536 258.027 350.771C257.794 351.006 257.477 351.138 257.146 351.138Z" fill="#4D4D4D"/>
<path d="M238.997 351.138H225.293C224.963 351.138 224.646 351.006 224.412 350.771C224.178 350.536 224.047 350.218 224.047 349.885C224.047 349.553 224.178 349.235 224.412 349C224.646 348.765 224.963 348.633 225.293 348.633H238.997C239.328 348.633 239.645 348.765 239.879 349C240.113 349.235 240.244 349.553 240.244 349.885C240.244 350.218 240.113 350.536 239.879 350.771C239.645 351.006 239.328 351.138 238.997 351.138Z" fill="white"/>
<path d="M219.368 351.138H179.411C179.08 351.138 178.763 351.006 178.529 350.771C178.295 350.536 178.164 350.218 178.164 349.885C178.164 349.553 178.295 349.235 178.529 349C178.763 348.765 179.08 348.633 179.411 348.633H219.409C219.74 348.633 220.057 348.765 220.291 349C220.524 349.235 220.656 349.553 220.656 349.885C220.656 350.218 220.524 350.536 220.291 350.771C220.057 351.006 219.74 351.138 219.409 351.138H219.368Z" fill="#4D4D4D"/>
<path d="M235.298 265.915H221.594C221.264 265.915 220.947 265.783 220.713 265.548C220.479 265.313 220.348 264.995 220.348 264.663C220.348 264.33 220.479 264.012 220.713 263.777C220.947 263.542 221.264 263.41 221.594 263.41H235.298C235.629 263.41 235.946 263.542 236.18 263.777C236.413 264.012 236.545 264.33 236.545 264.663C236.545 264.995 236.413 265.313 236.18 265.548C235.946 265.783 235.629 265.915 235.298 265.915Z" fill="#4D4D4D"/>
<path d="M217.15 265.915H203.446C203.115 265.915 202.798 265.783 202.564 265.548C202.331 265.313 202.199 264.995 202.199 264.663C202.199 264.33 202.331 264.012 202.564 263.777C202.798 263.542 203.115 263.41 203.446 263.41H217.15C217.48 263.41 217.798 263.542 218.031 263.777C218.265 264.012 218.396 264.33 218.396 264.663C218.396 264.995 218.265 265.313 218.031 265.548C217.798 265.783 217.48 265.915 217.15 265.915Z" fill="#4D4D4D"/>
<path d="M197.519 265.915H157.512C157.182 265.915 156.865 265.783 156.631 265.548C156.397 265.313 156.266 264.995 156.266 264.663C156.266 264.33 156.397 264.012 156.631 263.777C156.865 263.542 157.182 263.41 157.512 263.41H197.519C197.85 263.41 198.167 263.542 198.4 263.777C198.634 264.012 198.766 264.33 198.766 264.663C198.766 264.995 198.634 265.313 198.4 265.548C198.167 265.783 197.85 265.915 197.519 265.915Z" fill="#4D4D4D"/>
<path d="M235.298 278.568H221.594C221.264 278.568 220.947 278.436 220.713 278.201C220.479 277.966 220.348 277.647 220.348 277.315C220.348 276.983 220.479 276.664 220.713 276.429C220.947 276.194 221.264 276.062 221.594 276.062H235.298C235.629 276.062 235.946 276.194 236.18 276.429C236.413 276.664 236.545 276.983 236.545 277.315C236.545 277.647 236.413 277.966 236.18 278.201C235.946 278.436 235.629 278.568 235.298 278.568Z" fill="#4D4D4D"/>
<path d="M217.15 278.568H203.446C203.115 278.568 202.798 278.436 202.564 278.201C202.331 277.966 202.199 277.647 202.199 277.315C202.199 276.983 202.331 276.664 202.564 276.429C202.798 276.194 203.115 276.062 203.446 276.062H217.15C217.48 276.062 217.798 276.194 218.031 276.429C218.265 276.664 218.396 276.983 218.396 277.315C218.396 277.647 218.265 277.966 218.031 278.201C217.798 278.436 217.48 278.568 217.15 278.568Z" fill="#4D4D4D"/>
<path d="M197.519 278.568H157.512C157.182 278.568 156.865 278.436 156.631 278.201C156.397 277.966 156.266 277.647 156.266 277.315C156.266 276.983 156.397 276.664 156.631 276.429C156.865 276.194 157.182 276.062 157.512 276.062H197.519C197.85 276.062 198.167 276.194 198.4 276.429C198.634 276.664 198.766 276.983 198.766 277.315C198.766 277.647 198.634 277.966 198.4 278.201C198.167 278.436 197.85 278.568 197.519 278.568Z" fill="white"/>
<path d="M171.216 272.29H157.512C157.182 272.29 156.865 272.158 156.631 271.923C156.397 271.688 156.266 271.37 156.266 271.038C156.266 270.705 156.397 270.387 156.631 270.152C156.865 269.917 157.182 269.785 157.512 269.785H171.216C171.547 269.785 171.864 269.917 172.098 270.152C172.331 270.387 172.463 270.705 172.463 271.038C172.463 271.37 172.331 271.688 172.098 271.923C171.864 272.158 171.547 272.29 171.216 272.29Z" fill="#4D4D4D"/>
<path d="M189.381 272.29H175.661C175.33 272.29 175.013 272.158 174.779 271.923C174.545 271.688 174.414 271.37 174.414 271.038C174.414 270.705 174.545 270.387 174.779 270.152C175.013 269.917 175.33 269.785 175.661 269.785H189.381C189.712 269.785 190.029 269.917 190.263 270.152C190.497 270.387 190.628 270.705 190.628 271.038C190.628 271.37 190.497 271.688 190.263 271.923C190.029 272.158 189.712 272.29 189.381 272.29Z" fill="#4D4D4D"/>
<path d="M235.3 272.29H195.293C194.963 272.29 194.646 272.158 194.412 271.923C194.178 271.688 194.047 271.37 194.047 271.038C194.047 270.705 194.178 270.387 194.412 270.152C194.646 269.917 194.963 269.785 195.293 269.785H235.3C235.631 269.785 235.948 269.917 236.182 270.152C236.415 270.387 236.547 270.705 236.547 271.038C236.547 271.37 236.415 271.688 236.182 271.923C235.948 272.158 235.631 272.29 235.3 272.29Z" fill="white"/>
<path d="M235.298 310.204H221.594C221.264 310.204 220.947 310.072 220.713 309.837C220.479 309.603 220.348 309.284 220.348 308.952C220.348 308.62 220.479 308.301 220.713 308.066C220.947 307.831 221.264 307.699 221.594 307.699H235.298C235.629 307.699 235.946 307.831 236.18 308.066C236.413 308.301 236.545 308.62 236.545 308.952C236.545 309.284 236.413 309.603 236.18 309.837C235.946 310.072 235.629 310.204 235.298 310.204Z" fill="#4D4D4D"/>
<path d="M217.15 310.204H203.446C203.115 310.204 202.798 310.072 202.564 309.837C202.331 309.603 202.199 309.284 202.199 308.952C202.199 308.62 202.331 308.301 202.564 308.066C202.798 307.831 203.115 307.699 203.446 307.699H217.15C217.48 307.699 217.798 307.831 218.031 308.066C218.265 308.301 218.396 308.62 218.396 308.952C218.396 309.284 218.265 309.603 218.031 309.837C217.798 310.072 217.48 310.204 217.15 310.204Z" fill="#4D4D4D"/>
<path d="M197.519 310.204H157.512C157.182 310.204 156.865 310.072 156.631 309.837C156.397 309.603 156.266 309.284 156.266 308.952C156.266 308.62 156.397 308.301 156.631 308.066C156.865 307.831 157.182 307.699 157.512 307.699H197.519C197.85 307.699 198.167 307.831 198.4 308.066C198.634 308.301 198.766 308.62 198.766 308.952C198.766 309.284 198.634 309.603 198.4 309.837C198.167 310.072 197.85 310.204 197.519 310.204Z" fill="#4D4D4D"/>
<path d="M235.298 322.853H221.594C221.264 322.853 220.947 322.721 220.713 322.486C220.479 322.251 220.348 321.932 220.348 321.6C220.348 321.268 220.479 320.949 220.713 320.715C220.947 320.48 221.264 320.348 221.594 320.348H235.298C235.629 320.348 235.946 320.48 236.18 320.715C236.413 320.949 236.545 321.268 236.545 321.6C236.545 321.932 236.413 322.251 236.18 322.486C235.946 322.721 235.629 322.853 235.298 322.853Z" fill="#4D4D4D"/>
<path d="M217.15 322.853H203.446C203.115 322.853 202.798 322.721 202.564 322.486C202.331 322.251 202.199 321.932 202.199 321.6C202.199 321.268 202.331 320.949 202.564 320.715C202.798 320.48 203.115 320.348 203.446 320.348H217.15C217.48 320.348 217.798 320.48 218.031 320.715C218.265 320.949 218.396 321.268 218.396 321.6C218.396 321.932 218.265 322.251 218.031 322.486C217.798 322.721 217.48 322.853 217.15 322.853Z" fill="#4D4D4D"/>
<path d="M197.519 322.853H157.512C157.182 322.853 156.865 322.721 156.631 322.486C156.397 322.251 156.266 321.932 156.266 321.6C156.266 321.268 156.397 320.949 156.631 320.715C156.865 320.48 157.182 320.348 157.512 320.348H197.519C197.85 320.348 198.167 320.48 198.4 320.715C198.634 320.949 198.766 321.268 198.766 321.6C198.766 321.932 198.634 322.251 198.4 322.486C198.167 322.721 197.85 322.853 197.519 322.853Z" fill="white"/>
<path d="M171.216 316.54H157.512C157.182 316.54 156.865 316.408 156.631 316.173C156.397 315.938 156.266 315.62 156.266 315.288C156.266 314.955 156.397 314.637 156.631 314.402C156.865 314.167 157.182 314.035 157.512 314.035H171.216C171.547 314.035 171.864 314.167 172.098 314.402C172.331 314.637 172.463 314.955 172.463 315.288C172.463 315.62 172.331 315.938 172.098 316.173C171.864 316.408 171.547 316.54 171.216 316.54Z" fill="#4D4D4D"/>
<path d="M189.381 316.54H175.661C175.33 316.54 175.013 316.408 174.779 316.173C174.545 315.938 174.414 315.62 174.414 315.288C174.414 314.955 174.545 314.637 174.779 314.402C175.013 314.167 175.33 314.035 175.661 314.035H189.381C189.712 314.035 190.029 314.167 190.263 314.402C190.497 314.637 190.628 314.955 190.628 315.288C190.628 315.62 190.497 315.938 190.263 316.173C190.029 316.408 189.712 316.54 189.381 316.54Z" fill="#4D4D4D"/>
<path d="M235.3 316.54H195.293C194.963 316.54 194.646 316.408 194.412 316.173C194.178 315.938 194.047 315.62 194.047 315.288C194.047 314.955 194.178 314.637 194.412 314.402C194.646 314.167 194.963 314.035 195.293 314.035H235.3C235.631 314.035 235.948 314.167 236.182 314.402C236.415 314.637 236.547 314.955 236.547 315.288C236.547 315.62 236.415 315.938 236.182 316.173C235.948 316.408 235.631 316.54 235.3 316.54Z" fill="white"/>
<path d="M171.216 330.306H157.512C157.182 330.306 156.865 330.174 156.631 329.939C156.397 329.704 156.266 329.385 156.266 329.053C156.266 328.721 156.397 328.403 156.631 328.168C156.865 327.933 157.182 327.801 157.512 327.801H171.216C171.547 327.801 171.864 327.933 172.098 328.168C172.331 328.403 172.463 328.721 172.463 329.053C172.463 329.385 172.331 329.704 172.098 329.939C171.864 330.174 171.547 330.306 171.216 330.306Z" fill="#4D4D4D"/>
<path d="M189.381 330.306H175.661C175.33 330.306 175.013 330.174 174.779 329.939C174.545 329.704 174.414 329.385 174.414 329.053C174.414 328.721 174.545 328.403 174.779 328.168C175.013 327.933 175.33 327.801 175.661 327.801H189.381C189.712 327.801 190.029 327.933 190.263 328.168C190.497 328.403 190.628 328.721 190.628 329.053C190.628 329.385 190.497 329.704 190.263 329.939C190.029 330.174 189.712 330.306 189.381 330.306Z" fill="#4D4D4D"/>
<path d="M235.3 330.306H195.293C194.963 330.306 194.646 330.174 194.412 329.939C194.178 329.704 194.047 329.385 194.047 329.053C194.047 328.721 194.178 328.403 194.412 328.168C194.646 327.933 194.963 327.801 195.293 327.801H235.3C235.631 327.801 235.948 327.933 236.182 328.168C236.415 328.403 236.547 328.721 236.547 329.053C236.547 329.385 236.415 329.704 236.182 329.939C235.948 330.174 235.631 330.306 235.3 330.306Z" fill="white"/>
<path d="M171.216 342.954H157.512C157.182 342.954 156.865 342.822 156.631 342.587C156.397 342.353 156.266 342.034 156.266 341.702C156.266 341.37 156.397 341.051 156.631 340.816C156.865 340.581 157.182 340.449 157.512 340.449H171.216C171.547 340.449 171.864 340.581 172.098 340.816C172.331 341.051 172.463 341.37 172.463 341.702C172.463 342.034 172.331 342.353 172.098 342.587C171.864 342.822 171.547 342.954 171.216 342.954Z" fill="#4D4D4D"/>
<path d="M189.381 342.954H175.661C175.33 342.954 175.013 342.822 174.779 342.587C174.545 342.353 174.414 342.034 174.414 341.702C174.414 341.37 174.545 341.051 174.779 340.816C175.013 340.581 175.33 340.449 175.661 340.449H189.381C189.712 340.449 190.029 340.581 190.263 340.816C190.497 341.051 190.628 341.37 190.628 341.702C190.628 342.034 190.497 342.353 190.263 342.587C190.029 342.822 189.712 342.954 189.381 342.954Z" fill="#4D4D4D"/>
<path d="M235.3 342.954H195.293C194.963 342.954 194.646 342.822 194.412 342.587C194.178 342.353 194.047 342.034 194.047 341.702C194.047 341.37 194.178 341.051 194.412 340.816C194.646 340.581 194.963 340.449 195.293 340.449H235.3C235.631 340.449 235.948 340.581 236.182 340.816C236.415 341.051 236.547 341.37 236.547 341.702C236.547 342.034 236.415 342.353 236.182 342.587C235.948 342.822 235.631 342.954 235.3 342.954Z" fill="white"/>
<path d="M235.298 336.626H221.594C221.264 336.626 220.947 336.494 220.713 336.259C220.479 336.024 220.348 335.706 220.348 335.374C220.348 335.041 220.479 334.723 220.713 334.488C220.947 334.253 221.264 334.121 221.594 334.121H235.298C235.629 334.121 235.946 334.253 236.18 334.488C236.413 334.723 236.545 335.041 236.545 335.374C236.545 335.706 236.413 336.024 236.18 336.259C235.946 336.494 235.629 336.626 235.298 336.626Z" fill="#4D4D4D"/>
<path d="M217.15 336.626H203.446C203.115 336.626 202.798 336.494 202.564 336.259C202.331 336.024 202.199 335.706 202.199 335.374C202.199 335.041 202.331 334.723 202.564 334.488C202.798 334.253 203.115 334.121 203.446 334.121H217.15C217.48 334.121 217.798 334.253 218.031 334.488C218.265 334.723 218.396 335.041 218.396 335.374C218.396 335.706 218.265 336.024 218.031 336.259C217.798 336.494 217.48 336.626 217.15 336.626Z" fill="#4D4D4D"/>
<path d="M197.519 336.626H157.512C157.182 336.626 156.865 336.494 156.631 336.259C156.397 336.024 156.266 335.706 156.266 335.374C156.266 335.041 156.397 334.723 156.631 334.488C156.865 334.253 157.182 334.121 157.512 334.121H197.519C197.85 334.121 198.167 334.253 198.4 334.488C198.634 334.723 198.766 335.041 198.766 335.374C198.766 335.706 198.634 336.024 198.4 336.259C198.167 336.494 197.85 336.626 197.519 336.626Z" fill="white"/>
<path d="M139.469 240.625H135.09V244.967H139.469V240.625Z" fill="#4D4D4D"/>
<path d="M139.469 247.754H135.09V252.096H139.469V247.754Z" fill="#4D4D4D"/>
<path d="M139.469 254.895H135.09V259.237H139.469V254.895Z" fill="#4D4D4D"/>
<path d="M139.469 262.023H135.09V266.366H139.469V262.023Z" fill="#4D4D4D"/>
<path d="M139.469 269.156H135.09V273.498H139.469V269.156Z" fill="#4D4D4D"/>
<path d="M139.469 276.293H135.09V280.635H139.469V276.293Z" fill="#4D4D4D"/>
<path d="M139.469 283.426H135.09V287.768H139.469V283.426Z" fill="#4D4D4D"/>
<path d="M139.469 290.559H135.09V294.901H139.469V290.559Z" fill="#4D4D4D"/>
<path d="M139.469 297.695H135.09V302.037H139.469V297.695Z" fill="#4D4D4D"/>
<path d="M139.469 304.828H135.09V309.17H139.469V304.828Z" fill="#4D4D4D"/>
<path d="M139.469 311.957H135.09V316.299H139.469V311.957Z" fill="#4D4D4D"/>
<path d="M139.469 319.098H135.09V323.44H139.469V319.098Z" fill="#4D4D4D"/>
<path d="M139.469 326.23H135.09V330.573H139.469V326.23Z" fill="#4D4D4D"/>
<path d="M139.469 333.359H135.09V337.701H139.469V333.359Z" fill="#4D4D4D"/>
<path d="M139.469 340.5H135.09V344.842H139.469V340.5Z" fill="#4D4D4D"/>
<path d="M139.469 347.629H135.09V351.971H139.469V347.629Z" fill="#4D4D4D"/>
<path d="M139.469 354.758H135.09V359.1H139.469V354.758Z" fill="#4D4D4D"/>
<path d="M139.469 361.898H135.09V366.241H139.469V361.898Z" fill="#4D4D4D"/>
<path d="M222.479 209.961C216.089 213.012 213.193 221.804 216.522 228.081C217.836 230.589 219.983 232.737 220.266 235.528C220.698 239.808 216.671 243.151 215.423 247.23C214.79 249.674 215.122 252.27 216.351 254.474C217.579 256.678 219.608 258.32 222.013 259.056C224.201 259.633 226.822 259.533 228.287 261.263C230.159 263.469 228.803 267.113 230.409 269.546C231.848 271.727 235.218 271.836 237.389 270.381C239.561 268.927 240.759 266.411 241.616 263.937C242.473 261.463 243.114 258.864 244.595 256.708C246.259 254.342 248.714 252.721 250.694 250.64C255.453 245.625 256.909 238.103 255.836 231.241C254.763 224.379 251.459 218.102 247.724 212.276" fill="#F05C2B"/>
<path d="M222.487 209.965C216.097 213.016 213.201 221.808 216.529 228.085C217.844 230.593 219.991 232.741 220.274 235.532C220.706 239.811 216.679 243.155 215.431 247.233C214.798 249.678 215.13 252.274 216.358 254.478C217.587 256.682 219.616 258.324 222.021 259.06C224.209 259.637 226.83 259.536 228.295 261.267C230.167 263.473 228.81 267.117 230.416 269.549C231.856 271.731 235.226 271.84 237.397 270.385C239.569 268.931 240.767 266.415 241.624 263.941C242.481 261.467 243.122 258.868 244.603 256.711C246.267 254.346 248.721 252.725 250.702 250.643C255.461 245.629 256.917 238.106 255.844 231.244C254.771 224.382 251.467 218.106 247.731 212.28" fill="#FFC727"/>
<path d="M228.099 213.574C222.682 215.973 220.311 223.52 223.373 228.619C225.245 231.728 228.873 234.536 227.991 238.055C227.392 240.445 224.846 241.908 224.113 244.257C223.14 247.383 226.085 250.701 229.33 251.094C232.575 251.486 235.704 249.748 238.158 247.583C246.654 240.061 248.725 225.351 243.425 215.313" fill="#F05C2B"/>
<path d="M256.025 165.734C256.025 165.734 283.849 184.222 280.812 216.209L255.234 204.675L256.025 165.734Z" fill="#F05C2B"/>
<path d="M209.793 204.027L216.117 214.55H248.908L255.231 204.629L209.793 204.027Z" fill="#263238"/>
<path d="M230.812 97.8594C224.572 98.2795 218.734 101.099 214.509 105.731C210.285 110.363 208.001 116.452 208.13 122.733L209.794 204.642H255.233L256.747 122.691C256.811 119.308 256.174 115.948 254.878 112.825C253.581 109.702 251.652 106.883 249.213 104.549C246.775 102.214 243.88 100.414 240.712 99.2622C237.545 98.1107 234.173 97.633 230.812 97.8594Z" fill="#F05C2B"/>
<g opacity="0.8">
<path d="M230.812 97.8555C224.572 98.2756 218.734 101.095 214.509 105.727C210.285 110.359 208.001 116.449 208.13 122.729L209.794 204.638H255.233L256.747 122.687C256.811 119.304 256.174 115.944 254.878 112.821C253.581 109.698 251.652 106.88 249.213 104.545C246.775 102.21 243.88 100.41 240.712 99.2583C237.545 98.1068 234.173 97.6291 230.812 97.8555Z" fill="white"/>
</g>
<path d="M208.963 165.734C208.963 165.734 181.172 184.222 184.218 216.209L209.795 204.658L208.963 165.734Z" fill="#F05C2B"/>
<path d="M208.377 120.014C217.987 111.564 248.149 111.748 256.245 118.626C254.165 88.2196 231.05 76.8359 231.05 76.8359C207.403 93.2846 208.377 120.014 208.377 120.014Z" fill="#F05C2B"/>
<path d="M231.055 76.8438L231.329 77.0945C231.504 77.2617 231.77 77.504 232.103 77.83L233.368 79.0336L234.2 79.8025L235.032 80.7386C235.631 81.3989 236.313 82.126 237.037 82.9451L239.25 85.72C239.625 86.2298 239.999 86.7815 240.39 87.3331C240.781 87.8847 241.222 88.4531 241.572 89.0799C242.312 90.3169 243.136 91.5874 243.843 93.05C245.466 96.1588 246.726 99.4459 247.596 102.846C248.087 104.736 248.451 106.657 248.686 108.596C248.827 109.599 248.902 110.619 249.044 111.63C249.134 112.681 249.17 113.735 249.152 114.789C249.152 123.273 249.044 132.6 248.935 142.371C248.703 161.962 248.428 179.69 248.22 192.519C248.112 198.93 248.02 204.12 247.954 207.714C247.954 209.503 247.887 210.899 247.87 211.893C247.87 212.361 247.87 212.729 247.87 212.963C247.87 213.197 247.87 213.331 247.87 213.331C247.87 213.331 247.87 213.205 247.87 212.963C247.87 212.721 247.87 212.361 247.87 211.893C247.87 210.94 247.87 209.545 247.912 207.714C247.954 204.12 248.02 198.93 248.095 192.519C248.262 179.673 248.486 161.945 248.744 142.371C248.852 132.575 248.977 123.248 248.977 114.789C249 113.746 248.964 112.702 248.869 111.663C248.736 110.635 248.661 109.624 248.528 108.629C248.295 106.696 247.934 104.781 247.446 102.896C246.587 99.5104 245.345 96.235 243.743 93.1336C242.995 91.6709 242.171 90.4005 241.414 89.1635C241.048 88.5367 240.582 87.985 240.241 87.4167C239.899 86.8483 239.492 86.3134 239.117 85.8036L236.921 83.0204C236.205 82.1846 235.531 81.4741 234.932 80.8055L234.1 79.861L233.31 79.0837L232.061 77.8634L231.304 77.1112L231.055 76.8438Z" fill="#263238"/>
<path d="M241.682 140.728C243.11 134.228 239.394 127.878 233.381 126.545C227.368 125.211 221.336 129.399 219.907 135.899C218.478 142.399 222.195 148.749 228.208 150.083C234.221 151.416 240.253 147.228 241.682 140.728Z" fill="#FAFAFA"/>
<path d="M233.372 126.542C233.308 126.551 233.244 126.551 233.18 126.542L232.639 126.467L232.24 126.4H231.749H231.183C230.975 126.4 230.759 126.4 230.534 126.4C230.028 126.431 229.525 126.498 229.028 126.6C228.437 126.726 227.858 126.902 227.298 127.127C225.928 127.676 224.674 128.482 223.603 129.501C222.306 130.731 221.292 132.231 220.633 133.897C220.449 134.351 220.296 134.818 220.175 135.293C220.117 135.535 220.042 135.778 219.984 136.02L219.859 136.772L219.792 137.157V137.541C219.792 137.8 219.751 138.068 219.734 138.327C219.718 138.586 219.734 138.853 219.734 139.121V139.522L219.776 139.932C219.995 142.202 220.862 144.361 222.272 146.15C223.757 148.094 225.877 149.449 228.258 149.978C230.64 150.507 233.131 150.176 235.294 149.042C237.312 148.003 238.993 146.404 240.136 144.437L240.344 144.094L240.519 143.726L240.868 143.016L241.143 142.28L241.276 141.912L241.384 141.536L241.584 140.801C241.642 140.558 241.667 140.308 241.717 140.065C241.801 139.581 241.856 139.093 241.883 138.603C241.994 136.813 241.71 135.02 241.051 133.354C240.29 131.403 239.009 129.7 237.349 128.431C236.94 128.125 236.512 127.846 236.067 127.595C235.859 127.495 235.676 127.378 235.493 127.294L234.969 127.077L234.511 126.893L234.129 126.776L233.596 126.617C233.536 126.601 233.477 126.579 233.421 126.55H233.604L234.137 126.684L234.536 126.793L234.994 126.968L235.527 127.177L236.109 127.47C236.565 127.719 237.004 127.999 237.424 128.305C237.91 128.675 238.369 129.08 238.796 129.517C239.831 130.596 240.651 131.864 241.209 133.253C241.897 134.939 242.201 136.758 242.1 138.578C242.08 139.076 242.027 139.573 241.942 140.065C241.892 140.316 241.867 140.567 241.809 140.817C241.75 141.068 241.675 141.319 241.601 141.57L241.501 141.946L241.368 142.314L241.085 143.066L240.735 143.793L240.56 144.169L240.344 144.52C239.189 146.531 237.478 148.163 235.418 149.217C233.209 150.382 230.662 150.724 228.225 150.185C225.789 149.645 223.622 148.257 222.106 146.267C220.682 144.435 219.815 142.23 219.609 139.915V139.505V139.096C219.609 138.828 219.609 138.552 219.609 138.26C219.609 137.967 219.609 137.725 219.676 137.424V137.031L219.734 136.638C219.784 136.388 219.826 136.129 219.867 135.878C219.909 135.627 220 135.385 220.067 135.134C220.19 134.652 220.349 134.18 220.541 133.721C221.211 132.028 222.249 130.506 223.578 129.267C224.669 128.243 225.946 127.44 227.339 126.901C227.909 126.679 228.496 126.506 229.095 126.383C229.597 126.287 230.106 126.225 230.617 126.199C230.85 126.199 231.067 126.199 231.275 126.199H231.849H232.34L232.739 126.274L233.28 126.375L233.372 126.542Z" fill="#263238"/>
<path d="M219.295 136.502C219.295 136.644 216.732 136.577 213.645 137.137C210.559 137.697 208.179 138.633 208.129 138.5C208.587 138.165 209.099 137.913 209.643 137.756C212.191 136.795 214.893 136.314 217.614 136.335C218.18 136.299 218.748 136.355 219.295 136.502Z" fill="#263238"/>
<path d="M256.033 136.486C255.346 136.491 254.66 136.426 253.986 136.294C252.738 136.144 251.007 135.943 249.093 135.801C247.179 135.659 245.44 135.625 244.176 135.6C243.492 135.637 242.807 135.606 242.129 135.508C242.794 135.335 243.48 135.256 244.167 135.274C245.831 135.199 247.498 135.221 249.16 135.341C250.807 135.456 252.446 135.666 254.069 135.968C254.742 136.059 255.402 136.233 256.033 136.486Z" fill="#263238"/>
<path d="M256.284 183.363C256.124 183.385 255.961 183.385 255.801 183.363L254.428 183.255L249.378 182.87C245.118 182.569 239.218 182.277 232.737 182.285C226.255 182.294 220.322 182.594 216.054 182.904L211.012 183.305L209.639 183.405C209.479 183.429 209.316 183.429 209.156 183.405C209.309 183.351 209.469 183.317 209.631 183.305L210.995 183.113C212.177 182.954 213.899 182.762 215.987 182.569C220.248 182.168 226.163 181.817 232.695 181.809C239.227 181.8 245.176 182.143 249.394 182.536C251.533 182.728 253.247 182.912 254.437 183.071L255.801 183.255C255.966 183.269 256.128 183.305 256.284 183.363Z" fill="#263238"/>
<path d="M220.5 148.25C220.5 148.316 220.217 148.342 220.026 148.667C219.971 148.751 219.934 148.846 219.918 148.946C219.902 149.045 219.908 149.147 219.935 149.244C219.977 149.347 220.048 149.435 220.14 149.497C220.232 149.56 220.34 149.594 220.45 149.595C220.562 149.612 220.675 149.596 220.778 149.548C220.88 149.501 220.966 149.424 221.025 149.328C221.066 149.236 221.087 149.136 221.087 149.035C221.087 148.934 221.066 148.835 221.025 148.743C220.883 148.392 220.609 148.325 220.625 148.258C220.642 148.191 221.008 148.133 221.316 148.584C221.403 148.719 221.457 148.872 221.474 149.032C221.492 149.191 221.472 149.353 221.416 149.503C221.332 149.691 221.19 149.846 221.012 149.947C220.834 150.048 220.628 150.088 220.426 150.063C220.251 150.054 220.082 149.995 219.938 149.894C219.795 149.793 219.683 149.653 219.615 149.49C219.548 149.328 219.527 149.15 219.555 148.976C219.584 148.803 219.66 148.641 219.777 148.509C220.143 148.066 220.534 148.191 220.5 148.25Z" fill="#263238"/>
<path d="M230.406 153.604C230.406 153.679 230.123 153.704 229.932 154.03C229.878 154.113 229.842 154.207 229.826 154.305C229.81 154.402 229.815 154.503 229.84 154.598C229.88 154.703 229.951 154.794 230.043 154.858C230.135 154.922 230.244 154.957 230.356 154.958C230.468 154.973 230.582 154.955 230.684 154.906C230.786 154.857 230.871 154.779 230.93 154.682C230.969 154.591 230.989 154.493 230.989 154.394C230.989 154.295 230.969 154.196 230.93 154.105C230.78 153.754 230.506 153.687 230.522 153.621C230.539 153.554 230.905 153.495 231.213 153.947C231.3 154.08 231.354 154.232 231.372 154.39C231.389 154.548 231.369 154.709 231.313 154.858C231.229 155.046 231.088 155.202 230.91 155.304C230.732 155.407 230.526 155.449 230.323 155.426C230.14 155.424 229.961 155.367 229.81 155.264C229.658 155.16 229.541 155.014 229.472 154.844C229.402 154.673 229.385 154.486 229.42 154.306C229.456 154.126 229.545 153.96 229.674 153.83C230.048 153.428 230.439 153.52 230.406 153.604Z" fill="#263238"/>
<path d="M241.327 149.035C241.327 149.11 241.053 149.135 240.853 149.461C240.799 149.545 240.763 149.638 240.747 149.736C240.732 149.834 240.736 149.934 240.761 150.03C240.805 150.134 240.877 150.224 240.97 150.288C241.063 150.351 241.173 150.387 241.286 150.389C241.397 150.406 241.51 150.388 241.611 150.339C241.712 150.29 241.796 150.211 241.851 150.113C241.891 150.022 241.911 149.924 241.911 149.825C241.911 149.726 241.891 149.628 241.851 149.537C241.71 149.186 241.427 149.119 241.444 149.044C241.46 148.968 241.826 148.927 242.134 149.378C242.224 149.51 242.281 149.661 242.3 149.82C242.319 149.979 242.299 150.14 242.242 150.289C242.155 150.476 242.012 150.631 241.834 150.733C241.655 150.835 241.449 150.878 241.244 150.857C241.04 150.849 240.844 150.775 240.684 150.648C240.524 150.52 240.408 150.345 240.354 150.147C240.321 149.991 240.325 149.829 240.367 149.674C240.409 149.52 240.487 149.379 240.595 149.261C240.969 148.86 241.36 148.985 241.327 149.035Z" fill="#263238"/>
<path d="M244.882 140.833C244.882 140.9 244.599 140.925 244.399 141.251C244.346 141.336 244.312 141.431 244.297 141.53C244.283 141.63 244.289 141.731 244.316 141.827C244.356 141.932 244.427 142.023 244.519 142.087C244.611 142.151 244.72 142.186 244.832 142.187C244.943 142.201 245.055 142.183 245.156 142.134C245.256 142.085 245.34 142.007 245.398 141.911C245.437 141.82 245.457 141.722 245.457 141.623C245.457 141.523 245.437 141.425 245.398 141.334C245.256 140.983 244.982 140.908 244.99 140.841C244.998 140.774 245.373 140.724 245.689 141.175C245.776 141.308 245.831 141.46 245.848 141.619C245.866 141.777 245.845 141.938 245.789 142.086C245.704 142.273 245.562 142.428 245.384 142.528C245.206 142.629 245.001 142.67 244.798 142.646C244.593 142.638 244.396 142.565 244.234 142.438C244.073 142.31 243.956 142.135 243.9 141.936C243.868 141.78 243.873 141.618 243.915 141.464C243.957 141.31 244.034 141.168 244.141 141.05C244.516 140.657 244.907 140.783 244.882 140.833Z" fill="#263238"/>
<path d="M216.893 140.04C216.893 140.107 216.61 140.132 216.418 140.458C216.365 140.542 216.329 140.637 216.313 140.737C216.298 140.836 216.302 140.937 216.327 141.034C216.368 141.139 216.439 141.229 216.531 141.293C216.623 141.357 216.731 141.392 216.843 141.394C216.955 141.407 217.068 141.388 217.169 141.339C217.271 141.29 217.357 141.214 217.417 141.118C217.458 141.028 217.479 140.929 217.479 140.83C217.479 140.73 217.458 140.632 217.417 140.541C217.276 140.19 217.001 140.115 217.018 140.048C217.034 139.981 217.4 139.931 217.708 140.382C217.796 140.515 217.85 140.667 217.868 140.826C217.885 140.984 217.865 141.145 217.808 141.294C217.724 141.481 217.583 141.636 217.405 141.737C217.226 141.838 217.021 141.879 216.818 141.854C216.613 141.845 216.415 141.772 216.254 141.645C216.092 141.517 215.975 141.342 215.919 141.143C215.887 140.986 215.892 140.824 215.936 140.669C215.979 140.515 216.059 140.374 216.169 140.257C216.535 139.864 216.926 139.99 216.893 140.04Z" fill="#263238"/>
<path d="M241.313 128.79C241.313 128.723 241.595 128.698 241.787 128.372C241.842 128.288 241.879 128.193 241.895 128.093C241.911 127.994 241.905 127.892 241.878 127.795C241.835 127.692 241.764 127.603 241.673 127.54C241.581 127.476 241.474 127.44 241.362 127.436C241.252 127.421 241.139 127.44 241.039 127.489C240.938 127.538 240.854 127.615 240.797 127.712C240.753 127.801 240.731 127.9 240.731 128C240.731 128.1 240.753 128.198 240.797 128.288C240.938 128.639 241.213 128.714 241.196 128.781C241.179 128.848 240.813 128.898 240.505 128.447C240.418 128.314 240.363 128.162 240.346 128.004C240.328 127.845 240.349 127.685 240.406 127.536C240.489 127.349 240.631 127.193 240.809 127.092C240.987 126.992 241.193 126.951 241.396 126.976C241.579 126.978 241.757 127.035 241.909 127.138C242.06 127.242 242.178 127.388 242.247 127.558C242.316 127.728 242.334 127.915 242.298 128.096C242.262 128.276 242.174 128.442 242.045 128.572C241.67 128.974 241.279 128.84 241.313 128.79Z" fill="#263238"/>
<path d="M230.39 123.928C230.39 123.861 230.672 123.836 230.864 123.51C230.917 123.425 230.953 123.33 230.969 123.231C230.985 123.132 230.98 123.03 230.955 122.933C230.911 122.829 230.838 122.74 230.745 122.677C230.653 122.613 230.544 122.577 230.431 122.574C230.32 122.559 230.208 122.578 230.107 122.627C230.007 122.676 229.923 122.753 229.865 122.85C229.826 122.941 229.806 123.039 229.806 123.138C229.806 123.237 229.826 123.335 229.865 123.426C230.007 123.786 230.29 123.852 230.273 123.919C230.256 123.986 229.89 124.045 229.582 123.585C229.472 123.437 229.408 123.259 229.4 123.074C229.391 122.889 229.437 122.706 229.533 122.547C229.629 122.389 229.769 122.263 229.937 122.186C230.104 122.109 230.291 122.084 230.473 122.114C230.677 122.123 230.873 122.196 231.033 122.324C231.193 122.451 231.309 122.627 231.363 122.824C231.395 122.981 231.39 123.143 231.348 123.297C231.306 123.451 231.229 123.592 231.122 123.71C230.747 124.112 230.356 123.986 230.39 123.928Z" fill="#263238"/>
<path d="M219.589 128.791C219.589 128.724 219.872 128.699 220.063 128.373C220.117 128.288 220.152 128.193 220.168 128.094C220.184 127.995 220.179 127.894 220.155 127.796C220.11 127.693 220.037 127.604 219.945 127.54C219.852 127.476 219.743 127.441 219.63 127.437C219.52 127.423 219.407 127.441 219.307 127.49C219.206 127.539 219.122 127.617 219.065 127.713C219.025 127.804 219.005 127.902 219.005 128.001C219.005 128.1 219.025 128.198 219.065 128.289C219.206 128.641 219.489 128.716 219.472 128.783C219.456 128.849 219.09 128.9 218.782 128.448C218.671 128.3 218.608 128.122 218.599 127.937C218.59 127.752 218.636 127.569 218.732 127.411C218.828 127.252 218.968 127.127 219.136 127.049C219.303 126.972 219.49 126.947 219.672 126.977C219.876 126.986 220.072 127.059 220.232 127.187C220.392 127.315 220.508 127.49 220.562 127.688C220.595 127.844 220.589 128.006 220.548 128.16C220.506 128.314 220.428 128.456 220.321 128.574C219.947 128.975 219.555 128.841 219.589 128.791Z" fill="#263238"/>
<path d="M229.008 169.093L229.982 217.996C229.997 218.675 230.28 219.321 230.768 219.791C231.256 220.261 231.91 220.517 232.586 220.504C233.243 220.489 233.87 220.22 234.335 219.753C234.8 219.286 235.067 218.656 235.082 217.996C235.182 209.187 235.507 179.549 235.557 169.043C235.558 168.569 235.458 168.1 235.262 167.669C235.066 167.237 234.78 166.854 234.423 166.544C234.065 166.234 233.646 166.006 233.192 165.875C232.739 165.743 232.262 165.712 231.796 165.783C231.011 165.903 230.296 166.304 229.783 166.912C229.271 167.521 228.995 168.296 229.008 169.093Z" fill="#F05C2B"/>
<g opacity="0.3">
<path d="M229.008 169.093L229.982 217.996C229.997 218.675 230.28 219.321 230.768 219.791C231.256 220.261 231.91 220.517 232.586 220.504C233.243 220.489 233.87 220.22 234.335 219.753C234.8 219.286 235.067 218.656 235.082 217.996C235.182 209.187 235.507 179.549 235.557 169.043C235.558 168.569 235.458 168.1 235.262 167.669C235.066 167.237 234.78 166.854 234.423 166.544C234.065 166.234 233.646 166.006 233.192 165.875C232.739 165.743 232.262 165.712 231.796 165.783C231.011 165.903 230.296 166.304 229.783 166.912C229.271 167.521 228.995 168.296 229.008 169.093Z" fill="black"/>
</g>
<path d="M230.514 79.6372C230.655 79.8044 229.041 81.3757 226.687 84.1338C225.505 85.5046 224.19 87.2096 222.801 89.1487C221.323 91.2764 219.962 93.4834 218.724 95.7599C217.517 98.0499 216.436 100.405 215.487 102.814C214.655 105.046 213.948 107.093 213.457 108.84C212.467 112.334 212.051 114.557 211.793 114.524C211.535 114.49 211.701 112.217 212.467 108.598C212.925 106.483 213.52 104.4 214.247 102.363C215.148 99.8669 216.222 97.4371 217.459 95.0912C218.73 92.7703 220.154 90.5366 221.719 88.4048C223.012 86.6714 224.416 85.0242 225.921 83.4736C228.542 80.8073 230.406 79.5118 230.514 79.6372Z" fill="white"/>
<path d="M207.935 170.599C208.069 170.808 205.764 172.271 202.552 175.297L201.312 176.483C200.88 176.901 200.48 177.378 200.031 177.837C199.124 178.757 198.275 179.843 197.352 180.955C195.424 183.427 193.712 186.061 192.235 188.828C190.795 191.619 189.592 194.527 188.64 197.521C188.249 198.908 187.808 200.229 187.592 201.491C187.459 202.126 187.301 202.728 187.201 203.321C187.101 203.915 187.009 204.475 186.926 204.993C186.277 209.347 186.335 212.097 186.094 212.105C185.994 212.105 185.903 211.428 185.82 210.175C185.82 209.857 185.778 209.506 185.761 209.13C185.745 208.754 185.761 208.336 185.761 207.893C185.768 206.885 185.826 205.878 185.936 204.876C185.994 204.316 186.061 203.731 186.127 203.121C186.194 202.51 186.335 201.884 186.444 201.24C186.652 199.928 187.026 198.565 187.4 197.128C189.167 190.893 192.214 185.099 196.345 180.119C197.241 179.036 198.191 177.998 199.191 177.01C199.657 176.55 200.098 176.082 200.555 175.681L201.886 174.536C202.649 173.878 203.446 173.262 204.274 172.689C204.632 172.43 204.965 172.179 205.281 171.97L206.172 171.435C207.295 170.825 207.877 170.516 207.935 170.599Z" fill="white"/>
<path d="M286.703 341.996C286.203 342.256 285.784 342.65 285.49 343.133C285.197 343.616 285.041 344.171 285.039 344.737C285.059 345.369 285.281 345.977 285.673 346.471C286.065 346.966 286.605 347.32 287.213 347.481C287.821 347.642 288.465 347.602 289.048 347.366C289.632 347.13 290.124 346.711 290.452 346.172C290.779 345.632 290.924 345.001 290.866 344.372C290.808 343.743 290.548 343.149 290.127 342.68C289.706 342.211 289.145 341.891 288.528 341.767C287.911 341.644 287.271 341.724 286.703 341.996Z" fill="#F05C2B"/>
<g opacity="0.8">
<path d="M286.699 341.996C286.199 342.256 285.78 342.65 285.486 343.133C285.193 343.616 285.037 344.171 285.035 344.737C285.055 345.369 285.277 345.977 285.669 346.471C286.061 346.966 286.601 347.32 287.209 347.481C287.817 347.642 288.461 347.602 289.045 347.366C289.628 347.13 290.12 346.711 290.448 346.172C290.775 345.632 290.921 345.001 290.862 344.372C290.804 343.743 290.544 343.149 290.123 342.68C289.702 342.211 289.141 341.891 288.524 341.767C287.907 341.644 287.267 341.724 286.699 341.996Z" fill="white"/>
</g>
<path d="M114 379.562H362.378V382.858C362.378 386.125 361.276 389.258 359.314 391.568C357.351 393.878 354.69 395.176 351.916 395.176H124.462C121.687 395.176 119.026 393.878 117.064 391.568C115.102 389.258 114 386.125 114 382.858V379.562Z" fill="#455A64"/>
<path d="M214.984 377.895L218.071 383.665H261.44L264.298 377.895H214.984Z" fill="#263238"/>
<path d="M320.687 309.534C317.728 311.97 315.531 315.139 314.34 318.692C313.148 322.244 313.009 326.042 313.936 329.666C311.169 329.144 308.31 329.28 305.61 330.06C302.91 330.841 300.452 332.242 298.453 334.142C296.453 336.041 294.972 338.38 294.141 340.954C293.309 343.527 293.153 346.256 293.684 348.901C287.603 344.905 278.305 346.399 273.929 352.082C273.837 348.333 273.684 344.378 271.622 341.185C269.56 337.991 264.871 336.023 261.563 338.05C262.817 336.686 263.579 334.974 263.736 333.166C263.893 331.357 263.438 329.549 262.437 328.006C261.436 326.464 259.942 325.269 258.176 324.599C256.41 323.928 254.465 323.817 252.628 324.281C252.536 319.782 249.56 287.92 247.105 261.039H226.141C223.686 287.451 220.881 317.789 220.789 322.178C218.947 321.703 216.994 321.809 215.22 322.479C213.446 323.149 211.946 324.348 210.943 325.898C209.939 327.447 209.487 329.264 209.652 331.079C209.817 332.894 210.592 334.609 211.86 335.97C208.552 333.943 203.882 335.917 201.802 339.105C199.721 342.292 199.58 346.253 199.488 350.002C195.112 344.325 185.821 342.825 179.733 346.821C180.265 344.176 180.108 341.447 179.277 338.874C178.445 336.3 176.965 333.961 174.965 332.062C172.965 330.162 170.507 328.761 167.808 327.98C165.108 327.2 162.249 327.064 159.481 327.586C160.464 323.962 160.35 320.146 159.152 316.582C157.953 313.018 155.72 309.852 152.711 307.452C149.702 305.052 146.041 303.516 142.154 303.024C138.268 302.532 134.314 303.103 130.754 304.671V372.946H342.664V306.739C339.087 305.223 335.141 304.681 331.262 305.174C327.383 305.667 323.723 307.176 320.687 309.534Z" fill="white"/>
<path d="M316.492 349.613C312.693 347.096 308.41 345.374 303.909 344.554C299.408 343.734 294.784 343.835 290.324 344.848C285.864 345.862 281.662 347.768 277.978 350.447C274.295 353.127 271.207 356.524 268.908 360.428C267.045 357.945 264.612 355.934 261.808 354.561C262.006 354.039 262.172 353.506 262.304 352.964C262.847 350.647 262.781 348.231 262.112 345.946C261.444 343.661 260.195 341.582 258.485 339.906C256.774 338.231 254.658 337.013 252.338 336.369C250.017 335.726 247.568 335.677 245.223 336.228L238.956 248.164H230.74V329.146C225.652 329.914 222.102 335.859 223.898 340.637C222.125 340.91 220.446 341.602 219.004 342.656C217.562 343.709 216.401 345.092 215.621 346.686C215.13 347.726 215.057 349.928 215.48 352.42C212.378 352.475 209.33 353.228 206.568 354.621C203.805 356.014 201.401 358.01 199.539 360.458C197.239 356.554 194.152 353.157 190.468 350.478C186.784 347.798 182.582 345.892 178.122 344.878C173.662 343.865 169.038 343.765 164.537 344.584C160.036 345.404 155.753 347.126 151.954 349.643C149.802 339.361 138.146 332.055 127.797 334.523V363.875L223.316 363.754C223.972 363.939 224.651 364.032 225.333 364.033L248.681 363.76L340.692 363.875V334.468C330.318 332.025 318.663 339.331 316.492 349.613Z" fill="url(#paint1_linear_2461_13548)"/>
</g>
<defs>
<linearGradient id="paint0_linear_2461_13548" x1="240.968" y1="287" x2="240.968" y2="543.5" gradientUnits="userSpaceOnUse">
<stop stop-color="#FF473E"/>
<stop offset="0.237028" stop-color="#FFC727"/>
<stop offset="1" stop-color="#FF473E" stop-opacity="0"/>
</linearGradient>
<linearGradient id="paint1_linear_2461_13548" x1="234.245" y1="248.164" x2="234.245" y2="373.936" gradientUnits="userSpaceOnUse">
<stop stop-color="#F05C2B"/>
<stop offset="1" stop-color="#F05C2B" stop-opacity="0"/>
</linearGradient>
<clipPath id="clip0_2461_13548">
<rect width="480" height="512" fill="white"/>
</clipPath>
</defs>
</svg>
