<svg width="206" height="181" viewBox="0 0 206 181" fill="none" xmlns="http://www.w3.org/2000/svg">
<path fill-rule="evenodd" clip-rule="evenodd" d="M138.761 179.837C144.666 177.593 153.88 172.662 160.548 168.18C168.526 162.817 179.487 152.589 184.946 145.414C194.75 132.527 199.879 119.419 202.827 99.7165C204.809 86.4676 204.95 83.1038 205.133 44.6483C205.327 3.74983 205.504 6.31697 202.264 3.07661C199.137 -0.0507513 200.987 0.0898129 162.898 0.0898095C126.112 0.0898063 127.399 0.0147332 124.36 2.33311C123.584 2.92487 122.464 4.2346 121.871 5.24325L120.792 7.07764L120.684 41.923L120.576 76.7684L121.439 78.7741C122.452 81.1288 125.232 83.7531 127.332 84.3365C128.193 84.5752 135.367 84.739 145.05 84.7402L161.322 84.7426L161.322 87.2534C161.322 92.9702 159.692 102.672 157.652 109.1C154.939 117.646 150.8 124.537 144.805 130.487C139.914 135.343 134.25 139.198 126.288 143.094C120.467 145.942 119.593 146.649 117.994 149.808C117.57 150.644 117.288 152.135 117.274 153.609C117.254 155.743 117.52 156.609 119.486 160.818C126.97 176.835 127.582 177.851 130.708 179.446C133.001 180.615 136.293 180.775 138.761 179.837ZM20.6817 180.13C22.8947 179.721 33.3002 174.629 38.9348 171.198C56.0291 160.787 69.3727 146.839 77.1811 131.219C82.8907 119.798 85.719 108.26 87.7108 88.2604C88.2402 82.9457 88.392 74.9991 88.5349 45.0508C88.7326 3.70351 88.9115 6.32175 85.6663 3.0766C82.5394 -0.0503647 84.3869 0.0898027 46.3219 0.0897993C9.21968 0.0897961 10.5202 0.00912299 7.50305 2.496C6.71162 3.14847 5.59877 4.61632 5.02975 5.75792L3.99556 7.83351L4.00433 42.3946C4.01312 76.3012 4.0287 76.99 4.82652 78.753C5.76128 80.8186 7.1872 82.4274 9.18653 83.6724C10.5518 84.5229 10.9806 84.5477 27.7486 84.7425L44.9132 84.9422L44.7914 88.1366C44.4763 96.3875 42.4846 106.207 39.7182 113.144C36.874 120.276 33.4675 125.478 28.2981 130.585C23.5935 135.232 18.7902 138.543 11.2505 142.337C4.02269 145.973 2.0026 147.649 1.18442 150.687C0.216097 154.283 0.726046 156.094 5.49175 166.001C8.15152 171.53 10.5118 175.883 11.4222 176.939C13.735 179.621 17.1195 180.787 20.6817 180.13Z" fill="#FF473E" fill-opacity="0.2"/>
</svg>
