<svg width="18" height="18" viewBox="0 0 18 18" fill="none" xmlns="http://www.w3.org/2000/svg">
<path d="M16 0H2C0.895 0 0 0.895 0 2V16C0 17.105 0.895 18 2 18H16C17.105 18 18 17.105 18 16V2C18 0.895 17.105 0 16 0ZM4.738 14C4.041 14 3.476 13.435 3.476 12.738V8.261C3.477 7.565 4.042 7 4.738 7C5.435 7 6 7.565 6 8.262V12.739C6 13.435 5.435 14 4.738 14ZM4.694 5.717C3.923 5.717 3.408 5.203 3.408 4.517C3.408 3.831 3.922 3.317 4.779 3.317C5.55 3.317 6.065 3.831 6.065 4.517C6.065 5.203 5.551 5.717 4.694 5.717ZM13.779 14C13.105 14 12.558 13.453 12.558 12.779V10.174C12.558 9.116 11.907 9 11.663 9C11.419 9 10.605 9.035 10.605 10.174V12.779C10.605 13.453 10.058 14 9.384 14H9.303C8.629 14 8.082 13.453 8.082 12.779V8.262C8.082 7.565 8.647 7 9.344 7C10.041 7 10.606 7.565 10.606 8.262C10.606 8.262 10.888 7 12.804 7C14.023 7 15 7.977 15 10.174V12.779C15 13.453 14.453 14 13.779 14Z" fill="#5F3A9F"/>
</svg>
