<svg width="250" height="177" viewBox="0 0 250 177" fill="none" xmlns="http://www.w3.org/2000/svg">
<path d="M197.854 88.1006C197.854 78.4436 185.768 69.2917 167.239 63.6164C171.515 44.7184 169.615 29.6831 161.241 24.8695C159.31 23.7403 157.054 23.2055 154.589 23.2055V29.8317C155.955 29.8317 157.054 30.0991 157.974 30.6043C162.013 32.9219 163.765 41.747 162.399 53.0977C162.072 55.8908 161.538 58.8325 160.884 61.8336C155.064 60.4073 148.709 59.3079 142.028 58.5947C138.019 53.0977 133.862 48.1057 129.675 43.7378C139.356 34.7345 148.442 29.802 154.619 29.802V23.1758C146.453 23.1758 135.763 28.9997 124.954 39.1024C114.145 29.0591 103.455 23.2946 95.2886 23.2946V29.9208C101.435 29.9208 110.552 34.8236 120.232 43.7675C116.075 48.1355 111.918 53.0977 107.968 58.5947C101.257 59.3079 94.9026 60.4073 89.0824 61.8633C88.3995 58.8919 87.8946 56.0096 87.5383 53.2462C86.1427 41.8955 87.8649 33.0705 91.8737 30.7231C92.7646 30.1883 93.9227 29.9505 95.2886 29.9505V23.3244C92.7943 23.3244 90.5375 23.8592 88.5776 24.9883C80.2334 29.802 78.3626 44.8075 82.6684 63.6461C64.1982 69.3512 52.1719 78.4733 52.1719 88.1006C52.1719 97.7576 64.2576 106.91 82.7871 112.585C78.5111 131.483 80.4116 146.518 88.7855 151.332C90.7156 152.461 92.9724 152.996 95.4668 152.996C103.633 152.996 114.323 147.172 125.132 137.069C135.941 147.112 146.631 152.877 154.797 152.877C157.291 152.877 159.548 152.342 161.508 151.213C169.852 146.399 171.723 131.394 167.417 112.555C185.828 106.88 197.854 97.7279 197.854 88.1006ZM159.192 68.2815C158.093 72.1146 156.727 76.0665 155.183 80.0184C153.965 77.6413 152.689 75.2642 151.293 72.8871C149.927 70.51 148.472 68.1923 147.017 65.9341C151.234 66.5581 155.302 67.3306 159.192 68.2815ZM145.592 99.9268C143.275 103.938 140.9 107.742 138.435 111.277C134.011 111.664 129.527 111.872 125.013 111.872C120.529 111.872 116.045 111.664 111.65 111.307C109.186 107.771 106.78 103.998 104.464 100.016C102.208 96.1234 100.159 92.1714 98.2878 88.1898C100.129 84.2081 102.208 80.2264 104.435 76.3339C106.751 72.3226 109.126 68.5192 111.591 64.9832C116.016 64.5969 120.499 64.3889 125.013 64.3889C129.497 64.3889 133.981 64.5969 138.376 64.9535C140.84 68.4895 143.246 72.2631 145.562 76.2448C147.819 80.1373 149.868 84.0893 151.738 88.0709C149.868 92.0526 147.819 96.0342 145.592 99.9268ZM155.183 96.0639C156.786 100.046 158.152 104.027 159.281 107.89C155.391 108.841 151.293 109.643 147.047 110.267C148.502 107.979 149.957 105.632 151.323 103.225C152.689 100.848 153.965 98.4411 155.183 96.0639ZM125.072 127.769C122.311 124.916 119.549 121.737 116.817 118.26C119.49 118.379 122.222 118.468 124.983 118.468C127.775 118.468 130.536 118.409 133.239 118.26C130.566 121.737 127.804 124.916 125.072 127.769ZM102.98 110.267C98.7629 109.643 94.6947 108.871 90.8047 107.92C91.9034 104.087 93.2694 100.135 94.8135 96.1828C96.031 98.5599 97.3079 100.937 98.7035 103.314C100.099 105.691 101.525 108.009 102.98 110.267ZM124.924 48.4326C127.686 51.2851 130.447 54.4645 133.179 57.941C130.507 57.8222 127.775 57.733 125.013 57.733C122.222 57.733 119.46 57.7925 116.758 57.941C119.43 54.4645 122.192 51.2851 124.924 48.4326ZM102.95 65.9341C101.495 68.222 100.04 70.5694 98.6738 72.9763C97.3079 75.3534 96.031 77.7305 94.8135 80.1076C93.21 76.1259 91.844 72.1443 90.7156 68.2815C94.6057 67.3603 98.7035 66.5581 102.95 65.9341ZM76.0761 103.136C65.5642 98.6491 58.7641 92.7657 58.7641 88.1006C58.7641 83.4356 65.5642 77.5225 76.0761 73.0654C78.6299 71.966 81.4212 70.9854 84.3016 70.0643C85.9942 75.8882 88.2213 81.9499 90.9829 88.1601C88.251 94.3406 86.0536 100.372 84.3907 106.167C81.4509 105.246 78.6596 104.235 76.0761 103.136ZM92.0519 145.597C88.0134 143.279 86.2614 134.454 87.6274 123.104C87.954 120.31 88.4885 117.369 89.1418 114.368C94.962 115.794 101.317 116.893 107.998 117.607C112.007 123.104 116.164 128.096 120.351 132.463C110.671 141.467 101.584 146.399 95.4074 146.399C94.0711 146.37 92.9427 146.102 92.0519 145.597ZM162.488 122.955C163.883 134.306 162.161 143.131 158.152 145.478C157.262 146.013 156.103 146.251 154.737 146.251C148.591 146.251 139.474 141.348 129.794 132.404C133.951 128.036 138.108 123.074 142.058 117.577C148.769 116.864 155.124 115.764 160.944 114.308C161.627 117.309 162.161 120.192 162.488 122.955ZM173.92 103.136C171.367 104.235 168.575 105.216 165.695 106.137C164.002 100.313 161.775 94.2514 159.014 88.0412C161.745 81.8607 163.943 75.8288 165.606 70.0346C168.546 70.9557 171.337 71.966 173.95 73.0654C184.462 77.5522 191.262 83.4356 191.262 88.1006C191.232 92.7657 184.432 98.6788 173.92 103.136Z" fill="#61DAFB"/>
<path d="M124.985 101.682C132.479 101.682 138.555 95.6023 138.555 88.1027C138.555 80.6031 132.479 74.5234 124.985 74.5234C117.49 74.5234 111.414 80.6031 111.414 88.1027C111.414 95.6023 117.49 101.682 124.985 101.682Z" fill="#61DAFB"/>
</svg>
