<svg width="250" height="71" viewBox="0 0 250 71" fill="none" xmlns="http://www.w3.org/2000/svg">
<g clip-path="url(#clip0_2348_13054)">
<path d="M53.9254 13.4342C53.877 13.0819 53.5692 12.8864 53.3137 12.8651C53.0602 12.8438 48.0935 12.7684 48.0935 12.7684C48.0935 12.7684 43.9397 8.73459 43.5293 8.32424C43.1191 7.91391 42.3177 8.03778 42.006 8.13069C42.0022 8.13263 41.226 8.37264 39.9195 8.77717C39.7008 8.06876 39.3794 7.19773 38.9207 6.32285C37.442 3.50077 35.276 2.00843 32.6591 2.00457C32.6552 2.00457 32.6533 2.00457 32.6494 2.00457C32.4674 2.00457 32.2874 2.02199 32.1056 2.03747C32.0281 1.94456 31.9507 1.85359 31.8694 1.76455C30.7293 0.545134 29.268 -0.0490908 27.5163 0.00316991C24.1367 0.0999492 20.7708 2.54072 18.0416 6.87643C16.1215 9.92691 14.6601 13.7594 14.2459 16.7266C10.3651 17.9286 7.65136 18.7686 7.59136 18.788C5.63255 19.4035 5.57062 19.4635 5.31512 21.3101C5.12543 22.7056 0 62.3387 0 62.3387L42.9526 69.7674L61.569 65.1394C61.569 65.1394 53.9737 13.7865 53.9254 13.4342ZM37.7691 9.44301C36.78 9.74884 35.6554 10.0972 34.4359 10.4747C34.4108 8.76363 34.2076 6.38286 33.4101 4.32533C35.9748 4.81116 37.2367 7.7126 37.7691 9.44301ZM32.1887 11.1715C29.9377 11.8683 27.4814 12.629 25.0174 13.3916C25.7104 10.7379 27.0247 8.09585 28.639 6.3635C29.239 5.71895 30.079 5.00085 31.0738 4.5905C32.0087 6.54157 32.212 9.30365 32.1887 11.1715ZM27.584 2.25231C28.3776 2.2349 29.0454 2.4091 29.6164 2.7846C28.7028 3.25883 27.8201 3.94015 26.9917 4.82858C24.8451 7.13193 23.1999 10.707 22.5437 14.1562C20.4978 14.7891 18.4964 15.4105 16.6537 15.9795C17.8171 10.5502 22.3676 2.40329 27.584 2.25231Z" fill="#95BF47"/>
<path d="M53.3143 12.8685C53.0608 12.8473 48.0941 12.7718 48.0941 12.7718C48.0941 12.7718 43.9403 8.73801 43.53 8.32767C43.3771 8.17476 43.17 8.0954 42.9531 8.0625L42.9551 69.767L61.5696 65.141C61.5696 65.141 53.9744 13.7899 53.926 13.4376C53.8775 13.0853 53.5679 12.8898 53.3143 12.8685Z" fill="#5E8E3E"/>
<path d="M32.6341 22.4398L30.4721 30.5285C30.4721 30.5285 28.0604 29.431 25.2015 29.611C21.009 29.8763 20.9644 32.5202 21.0071 33.1842C21.2355 36.8017 30.7527 37.5915 31.287 46.0655C31.707 52.7316 27.7506 57.2919 22.0504 57.6519C15.208 58.0835 11.4414 54.0478 11.4414 54.0478L12.8912 47.881C12.8912 47.881 16.6829 50.7419 19.7179 50.5502C21.7 50.4244 22.4084 48.8121 22.3368 47.672C22.0387 42.953 14.2886 43.2317 13.799 35.4778C13.3867 28.953 17.6721 22.341 27.1273 21.7449C30.7701 21.5107 32.6341 22.4398 32.6341 22.4398Z" fill="white"/>
<path d="M86.0823 39.3781C83.9418 38.2166 82.8416 37.2375 82.8416 35.8917C82.8416 34.1793 84.3698 33.0791 86.7562 33.0791C89.5341 33.0791 92.0144 34.2407 92.0144 34.2407L93.9707 28.2471C93.9707 28.2471 92.1719 26.8398 86.8771 26.8398C79.5089 26.8398 74.4022 31.0595 74.4022 36.9917C74.4022 40.3552 76.7866 42.9239 79.9677 44.7573C82.5364 46.224 83.4541 47.2646 83.4541 48.7928C83.4541 50.3824 82.1698 51.6667 79.7854 51.6667C76.2318 51.6667 72.8759 49.8314 72.8759 49.8314L70.7969 55.825C70.7969 55.825 73.8973 57.9042 79.1134 57.9042C86.6966 57.9042 92.1393 54.1739 92.1393 47.4469C92.1373 43.8416 89.3863 41.2729 86.0823 39.3781Z" fill="black"/>
<path d="M116.294 26.7785C112.564 26.7785 109.629 28.5524 107.367 31.2421L107.244 31.1806L110.485 14.2422H102.045L93.8516 57.3532H102.291L105.104 42.6168C106.204 37.0514 109.077 33.6283 111.769 33.6283C113.664 33.6283 114.399 34.9127 114.399 36.748C114.399 37.9095 114.276 39.3167 114.033 40.4782L110.853 57.3552H119.293L122.594 39.9272C122.962 38.0918 123.207 35.8918 123.207 34.4231C123.204 29.6524 120.697 26.7785 116.294 26.7785Z" fill="black"/>
<path d="M142.283 26.7773C132.131 26.7773 125.406 35.9503 125.406 46.1616C125.406 52.7043 129.441 57.9627 137.025 57.9627C146.992 57.9627 153.719 49.0356 153.719 38.5784C153.719 32.5253 150.171 26.7773 142.283 26.7773ZM138.125 51.4833C135.25 51.4833 134.027 49.0375 134.027 45.9792C134.027 41.149 136.535 33.2606 141.121 33.2606C144.118 33.2606 145.095 35.8292 145.095 38.3365C145.095 43.5334 142.59 51.4833 138.125 51.4833Z" fill="black"/>
<path d="M175.307 26.7773C169.61 26.7773 166.378 31.7919 166.378 31.7919H166.257L166.746 27.2669H159.286C158.919 30.3251 158.245 34.9711 157.574 38.4575L151.703 69.3375H160.143L162.465 56.8626H162.65C162.65 56.8626 164.381 57.9627 167.603 57.9627C177.509 57.9627 183.99 47.8127 183.99 37.5379C183.99 31.8534 181.482 26.7773 175.307 26.7773ZM167.235 51.6042C165.044 51.6042 163.747 50.3813 163.747 50.3813L165.154 42.4929C166.133 37.2346 168.885 33.7482 171.821 33.7482C174.389 33.7482 175.183 36.1326 175.183 38.3961C175.183 43.8386 171.943 51.6042 167.235 51.6042Z" fill="black"/>
<path d="M196.033 14.6719C193.344 14.6719 191.203 16.8125 191.203 19.5635C191.203 22.0708 192.793 23.7833 195.178 23.7833H195.3C197.93 23.7833 200.191 22.0093 200.253 18.8916C200.253 16.4457 198.602 14.6719 196.033 14.6719Z" fill="black"/>
<path d="M184.234 57.3541H192.672L198.422 27.4531H189.92L184.234 57.3541Z" fill="black"/>
<path d="M219.886 27.392H214.015L214.32 25.9848C214.809 23.1108 216.522 20.5421 219.335 20.5421C220.836 20.5421 222.025 20.9703 222.025 20.9703L223.676 14.3662C223.676 14.3662 222.208 13.6328 219.088 13.6328C216.092 13.6328 213.098 14.489 210.834 16.4453C207.959 18.8912 206.614 22.437 205.942 25.9848L205.699 27.392H201.784L200.561 33.7523H204.476L200.012 57.3563H208.451L212.915 33.7523H218.725L219.886 27.392Z" fill="black"/>
<path d="M240.187 27.4512C240.187 27.4512 234.912 40.7419 232.543 47.9969H232.42C232.259 45.6605 230.341 27.4512 230.341 27.4512H221.473L226.551 54.9062C226.675 55.5168 226.613 55.8854 226.368 56.3134C225.387 58.2083 223.737 60.0436 221.78 61.3895C220.191 62.5508 218.418 63.2842 217.012 63.7738L219.335 70.9289C221.048 70.5622 224.593 69.155 227.59 66.3425C231.443 62.7351 234.988 57.1697 238.657 49.5864L248.992 27.4492H240.187V27.4512Z" fill="black"/>
</g>
<defs>
<clipPath id="clip0_2348_13054">
<rect width="250" height="70.9302" fill="white"/>
</clipPath>
</defs>
</svg>
