<svg width="80" height="80" viewBox="0 0 80 80" fill="none" xmlns="http://www.w3.org/2000/svg">
<rect x="0.5" y="0.5" width="79" height="79" rx="39.5" fill="#FF473E"/>
<path d="M35.8654 49.3346C36.9765 50.4457 38.3765 50.9675 40.0654 50.9C41.7543 50.8342 42.9765 50.2235 43.732 49.068L58.6654 26.668L36.2654 41.6013C35.1098 42.4013 34.4769 43.612 34.3667 45.2333C34.2547 46.8564 34.7543 48.2235 35.8654 49.3346ZM21.5987 61.3346C20.6209 61.3346 19.7214 61.1231 18.9 60.7C18.0769 60.2786 17.4209 59.6457 16.932 58.8013C15.7765 56.7124 14.8876 54.5462 14.2654 52.3026C13.6431 50.0573 13.332 47.7346 13.332 45.3346C13.332 41.6457 14.0325 38.1791 15.4334 34.9346C16.8325 31.6902 18.732 28.868 21.132 26.468C23.532 24.068 26.3543 22.1675 29.5987 20.7666C32.8431 19.3675 36.3098 18.668 39.9987 18.668C43.6431 18.668 47.0654 19.3569 50.2654 20.7346C53.4654 22.1124 56.2654 23.9906 58.6654 26.3693C61.0654 28.7462 62.9765 31.5231 64.3987 34.7C65.8209 37.8786 66.5543 41.2902 66.5987 44.9346C66.6431 47.3791 66.3658 49.7684 65.7667 52.1026C65.1658 54.4351 64.2431 56.668 62.9987 58.8013C62.5098 59.6457 61.8547 60.2786 61.0334 60.7C60.2103 61.1231 59.3098 61.3346 58.332 61.3346H21.5987Z" fill="#FFDA99"/>
<rect x="0.5" y="0.5" width="79" height="79" rx="39.5" stroke="#FF473E"/>
</svg>
