<svg width="80" height="80" viewBox="0 0 80 80" fill="none" xmlns="http://www.w3.org/2000/svg">
<rect width="80" height="80" rx="40" fill="#FF473E"/>
<path d="M40 16C26.7664 16 16 26.7664 16 40V49.9432C16 52.4008 18.1528 54.4 20.8 54.4H23.2C23.8365 54.4 24.447 54.1471 24.8971 53.6971C25.3471 53.247 25.6 52.6365 25.6 52V39.6568C25.6 39.0203 25.3471 38.4098 24.8971 37.9597C24.447 37.5097 23.8365 37.2568 23.2 37.2568H21.0208C22.3552 27.9688 30.3472 20.8 40 20.8C49.6528 20.8 57.6448 27.9688 58.9792 37.2568H56.8C56.1635 37.2568 55.553 37.5097 55.1029 37.9597C54.6529 38.4098 54.4 39.0203 54.4 39.6568V54.4C54.4 57.0472 52.2472 59.2 49.6 59.2H44.8V56.8H35.2V64H49.6C54.8944 64 59.2 59.6944 59.2 54.4C61.8472 54.4 64 52.4008 64 49.9432V40C64 26.7664 53.2336 16 40 16Z" fill="#FFDA99"/>
</svg>
