<svg width="20" height="16" viewBox="0 0 20 16" fill="none" xmlns="http://www.w3.org/2000/svg">
<path d="M19.582 2.186C19.352 1.326 18.674 0.648 17.814 0.418C16.254 2.08616e-07 10 0 10 0C10 0 3.746 2.08616e-07 2.186 0.418C1.326 0.648 0.648 1.326 0.418 2.186C-2.98023e-08 3.746 0 8 0 8C0 8 -2.98023e-08 12.254 0.418 13.814C0.648 14.674 1.326 15.352 2.186 15.582C3.746 16 10 16 10 16C10 16 16.254 16 17.814 15.582C18.675 15.352 19.352 14.674 19.582 13.814C20 12.254 20 8 20 8C20 8 20 3.746 19.582 2.186ZM8 10.598V5.402C8 5.017 8.417 4.777 8.75 4.969L13.25 7.567C13.583 7.759 13.583 8.241 13.25 8.433L8.75 11.031C8.417 11.224 8 10.983 8 10.598Z" fill="#5F3A9F"/>
</svg>
